<svg width="640" height="311" viewBox="0 0 640 311" fill="none" xmlns="http://www.w3.org/2000/svg">
<mask id="mask0_369_837" style="mask-type:alpha" maskUnits="userSpaceOnUse" x="0" y="0" width="640" height="311">
<rect width="640" height="311" rx="16" fill="#389BD9"/>
</mask>
<g mask="url(#mask0_369_837)">
<g opacity="0.4">
<path d="M870.762 219.279C809.387 200.191 768.941 173.77 743.21 152.953C717.191 131.902 699.668 111.25 663.081 94.1287C622.743 75.1743 594.056 73.3065 582.552 73.282C566.6 73.254 567.042 75.7361 540.44 77.9765C489.339 82.2821 481.726 73.6435 458.121 78.7717C418.984 87.2705 424.071 114.453 380.823 133.771C349.503 147.769 301.45 153.781 263.603 133.846C227.963 115.071 229.464 88.0864 190.369 75.5481C174.311 70.3975 159.928 70.7472 131.173 71.4487C94.3305 72.3018 68.5211 77.703 58.3001 79.3453C28.018 84.2264 -18.4488 81.2242 -86.9487 43.1581" stroke="white" stroke-width="0.5" stroke-miterlimit="10"/>
<path d="M869.315 227.793C809.825 209.875 767.941 184.788 739.701 162.864C716.797 144.887 700.238 127.074 675.435 111.471C670.009 108.065 664.253 104.656 657.958 101.418C618.289 81.0294 590.251 76.7309 578.469 75.2925C562.67 73.355 562.293 75.0546 536.237 77.1855C517.875 78.677 504.963 78.9919 495.041 78.8773C478.176 78.6769 470.056 77.1185 455.901 80.7842C450.624 82.132 445.519 84.0834 440.688 86.5997C418.348 98.2289 414.711 118.44 378.754 132.752C347.454 145.211 300.117 149.389 262.941 129.683C259.996 128.119 257.132 126.408 254.36 124.556C226.389 105.847 224.162 83.3455 189.81 72.2787C186.191 71.1072 182.498 70.1786 178.756 69.499C166.188 67.1754 152.607 67.4323 131.075 67.951C95.3921 68.8606 69.99 74.1417 58.7179 75.9618C50.4679 77.267 42.1229 77.8777 33.7708 77.7875C4.85276 77.5514 -34.3177 69.5142 -85.9066 42.3372" stroke="white" stroke-width="0.5" stroke-miterlimit="10"/>
<path d="M867.705 237.053C810.113 220.286 766.716 196.647 736.044 173.444C711.686 155.024 694.374 136.313 670.176 120.333C664.655 116.676 658.921 112.941 652.655 109.439C613.656 87.6061 586.502 79.9973 574.195 78.032C558.333 75.5195 557.333 75.1075 531.862 77.1276C514.025 78.5552 501.063 79.3199 491.223 79.6942C474.651 80.2999 466.935 79.452 453.546 83.5479C448.438 85.136 443.503 87.2342 438.815 89.8108C417.137 101.477 412.068 120.108 376.495 132.502C345.217 143.413 298.598 145.757 262.092 126.279C259.01 124.594 256.175 122.964 253.574 121.186C224.687 102.044 222.13 80.4909 189.041 69.8243C185.454 68.6506 181.793 67.7156 178.081 67.0255C165.318 64.5884 151.776 64.7636 130.751 65.3446C96.2263 66.2705 71.2442 71.4643 58.9325 73.3646C50.7493 74.6562 42.4757 75.2886 34.1912 75.256C5.49189 75.2085 -33.6431 67.8704 -85.0178 42.3036" stroke="white" stroke-width="0.5" stroke-miterlimit="10"/>
<path d="M865.948 246.932C810.246 231.355 765.392 209.046 732.231 184.69C706.473 165.76 688.37 146.192 664.797 129.83C659.173 125.92 653.449 121.867 647.232 118.095C608.9 94.8369 582.254 85.838 569.804 81.3969C554.401 75.9107 552.255 75.7858 527.36 77.6931C510.033 79.0334 497.02 80.2574 487.214 81.1102C470.945 82.5145 463.61 82.3919 450.989 86.9084C446.084 88.7487 441.343 90.9991 436.817 93.6356C415.804 105.329 409.246 122.358 374.137 132.841C342.843 142.196 296.977 142.723 261.144 123.465C258.09 121.786 255.275 120.161 252.686 118.415C222.914 98.7963 219.989 78.2236 188.204 67.8659C184.645 66.6892 181.012 65.7471 177.329 65.0458C164.373 62.4858 150.826 62.59 130.347 63.1918C97.0024 64.1286 72.4234 69.2214 59.0648 71.2804C50.9371 72.5373 42.727 73.1861 34.5028 73.2215C6.02207 73.3627 -33.0796 66.7332 -84.2283 42.7692" stroke="white" stroke-width="0.5" stroke-miterlimit="10"/>
<path d="M864.195 256.831C810.378 242.424 764.083 221.468 728.425 195.948C701.26 176.496 682.376 156.064 659.406 139.335C653.687 135.172 647.985 130.794 641.797 126.758C604.124 102.103 578.245 90.8201 565.397 84.7881C550.217 77.6585 547.199 76.4988 522.841 78.2848C505.98 79.558 492.979 81.2254 483.233 82.5322C467.27 84.7256 460.32 85.3495 448.46 90.275C443.768 92.3626 439.22 94.762 434.848 97.457C414.495 109.156 406.447 124.593 371.779 133.22C340.472 141.01 295.366 139.732 260.194 120.7C257.178 119.03 254.382 117.408 251.799 115.684C221.129 95.5959 217.834 76.1034 187.357 65.9953C183.821 64.829 180.218 63.8801 176.566 63.1539C163.434 60.4847 149.942 60.5209 129.934 61.1267C97.7448 62.0893 73.5763 67.0927 59.1771 69.2818C51.1092 70.5221 42.964 71.1913 34.8019 71.2843C6.52818 71.6217 -32.5359 65.6817 -83.4725 43.3373" stroke="white" stroke-width="0.5" stroke-miterlimit="10"/>
<path d="M863.194 263.242C811.262 250.003 763.513 230.408 725.368 203.725C696.808 183.744 677.14 162.417 654.764 145.359C648.962 140.938 643.255 136.267 637.111 131.941C600.118 105.894 574.966 92.3678 561.772 84.6863C546.792 75.9781 542.86 73.6946 519.105 75.3837C505.984 76.3298 492.929 78.0469 480.01 80.5261C464.326 83.4926 457.777 84.8864 446.717 90.1795C441.884 92.5048 437.855 95.2283 433.579 97.7972C413.895 109.464 404.332 123.373 370.144 130.103C338.797 136.311 294.468 133.242 259.967 114.439C256.98 112.775 254.203 111.158 251.634 109.457C220.05 88.9262 216.422 70.3514 187.222 60.6265C183.716 59.4654 180.144 58.5134 176.524 57.7755C163.192 55.0121 149.743 54.9475 130.278 55.5434C99.2611 56.5052 75.4892 61.4362 60.059 63.7576C52.045 64.9776 43.9586 65.6624 35.8535 65.8077C7.79636 66.3433 -31.2248 61.114 -81.9451 40.3703" stroke="white" stroke-width="0.5" stroke-miterlimit="10"/>
<path d="M862.635 267.845C812.602 255.758 763.401 237.515 722.755 209.687C692.799 189.176 672.372 166.94 650.556 149.615C644.663 144.923 638.972 139.956 632.859 135.356C596.49 107.935 572.054 92.1728 558.528 82.825C543.765 72.5923 538.94 69.1392 515.752 70.7134C502.759 71.596 489.865 73.5853 477.21 76.6595C461.849 80.3885 455.657 82.5629 445.361 88.2958C440.795 90.8203 436.992 93.7442 432.736 96.3576C413.693 108.066 402.646 120.264 368.935 125.207C337.532 129.81 293.987 124.97 260.158 106.386C257.209 104.731 254.461 103.121 251.888 101.439C219.384 80.4935 215.387 62.8589 187.499 53.5447C184.021 52.3799 180.477 51.4208 176.886 50.6725C163.378 47.7999 149.948 47.6494 131.001 48.3001C101.15 49.2898 77.7908 54.1219 61.3062 56.5903C53.3517 57.7854 45.3308 58.4874 37.2896 58.6923C9.43943 59.424 -29.5484 54.9033 -80.0502 35.7507" stroke="white" stroke-width="0.5" stroke-miterlimit="10"/>
<path d="M862.033 272.51C813.889 261.613 763.265 244.687 720.098 215.71C688.759 194.662 667.585 171.499 646.342 153.85C640.363 148.869 634.668 143.6 628.591 138.748C592.862 109.976 569.114 92.0124 555.299 80.9378C540.641 69.1954 535.025 64.5654 512.413 66.0268C499.516 66.8914 486.758 69.1989 474.375 72.9061C459.359 77.3827 453.507 80.3737 443.981 86.4774C439.708 89.217 436.118 92.3084 431.886 94.9971C413.49 106.679 400.913 117.236 367.701 120.376C336.238 123.352 293.502 116.759 260.371 98.4196C257.45 96.7708 254.721 95.1644 252.165 93.4963C218.756 72.07 214.451 55.419 187.819 46.4032C184.369 45.2444 180.858 44.2791 177.3 43.5117C163.608 40.478 150.205 40.2935 131.781 40.98C103.093 41.9668 80.1497 46.7308 62.6172 49.3176C54.7185 50.5 46.758 51.2248 38.7756 51.4884C11.1504 52.3802 -27.8041 48.5681 -78.0863 31.0469" stroke="white" stroke-width="0.5" stroke-miterlimit="10"/>
<path d="M861.436 277.197C815.177 267.469 763.115 251.877 717.448 221.755C684.715 200.168 662.797 176.068 642.104 158.151C636.052 152.913 630.338 147.37 624.323 142.19C589.225 112.065 566.146 91.896 552.052 79.0967C537.515 65.8585 531.103 60.0302 509.056 61.3767C496.261 62.2207 483.643 64.8181 471.554 69.0958C456.805 74.3128 451.379 78.1394 442.622 84.6139C438.63 87.5761 435.238 90.8116 431.039 93.5777C413.289 105.242 399.208 114.133 366.489 115.499C334.952 116.817 293.027 108.51 260.54 90.3833C257.648 88.7408 254.937 87.1386 252.395 85.5034C218.056 63.6608 213.435 47.9414 188.079 39.2684C184.654 38.1144 181.172 37.1421 177.645 36.3557C163.77 33.1917 150.352 32.9435 132.475 33.6509C104.964 34.6582 82.4193 39.3402 63.8461 42.0571C56.005 43.2321 48.1067 43.9868 40.185 44.318C12.7604 45.4345 -26.1523 42.2928 -76.2203 26.3818" stroke="white" stroke-width="0.5" stroke-miterlimit="10"/>
<path d="M860.843 281.864C816.475 273.276 762.958 259.005 714.788 227.747C680.626 205.603 658.023 180.571 637.857 162.399C631.729 156.874 626.005 151.058 620.03 145.607C585.565 114.16 563.144 91.7919 548.791 77.2223C534.326 62.5276 527.154 55.4692 505.684 56.7029C492.975 57.5533 480.489 60.4641 468.714 65.3212C454.276 71.2583 449.229 75.9503 441.244 82.786C437.533 85.9708 434.371 89.3473 430.145 92.1877C413.022 103.821 397.431 110.985 365.211 110.639C333.606 110.278 292.497 100.278 260.67 82.3784C257.817 80.7444 255.125 79.1464 252.577 77.5802C217.321 55.3138 212.373 40.5239 188.309 32.2172C184.909 31.0477 181.448 30.0668 177.94 29.279C163.868 26.0609 150.529 25.6801 133.137 26.3649C106.794 27.3905 84.6582 31.9927 65.0349 34.8376C57.944 35.8712 50.1529 36.7195 41.5594 37.1196C14.3535 38.4248 -24.5259 35.9917 -74.3679 21.6834" stroke="white" stroke-width="0.5" stroke-miterlimit="10"/>
<path d="M860.279 286.397C817.842 278.998 762.878 266.059 712.183 233.671C676.678 210.989 653.318 184.987 633.668 166.569C627.472 160.759 621.727 154.678 615.797 148.936C581.927 116.158 560.141 91.5974 545.595 75.2817C531.215 59.0732 523.281 50.8442 502.377 51.9629C489.74 52.8199 477.374 56.0328 465.919 61.4359C451.77 68.0984 447.177 73.6823 439.91 80.8474C436.481 84.2549 433.526 87.7776 429.362 90.7018C412.872 102.285 395.767 107.781 364.065 105.686C332.363 103.591 292.089 91.9436 260.934 74.2722C258.109 72.6446 255.436 71.0509 252.908 69.4888C216.723 46.7967 211.45 32.9362 188.64 24.9777C185.278 23.8096 181.854 22.8269 178.384 22.0341C164.101 18.6794 150.815 18.2402 133.98 18.9882C108.798 20.0206 87.0775 24.5546 66.4063 27.5179C59.3482 28.5387 51.6164 29.3902 43.1079 29.8592C16.1207 31.3531 -22.7233 29.619 -72.3532 16.9305" stroke="white" stroke-width="0.5" stroke-miterlimit="10"/>
<path d="M859.718 290.871C819.133 284.654 762.787 273.022 709.566 239.513C672.635 216.304 648.624 189.307 629.48 170.681C623.21 164.573 617.442 158.237 611.536 152.2C578.284 118.086 557.118 91.3587 542.399 73.2419C528.043 55.6161 519.362 46.0997 499.099 47.13C485.644 47.8154 472.527 52.4924 463.162 57.4598C449.299 64.8265 445.069 71.3023 438.606 78.816C435.477 82.4502 432.721 86.1171 428.588 89.1282C412.725 100.64 394.145 104.427 362.931 100.627C331.194 96.7912 291.693 83.5116 261.207 66.069C258.421 64.4498 255.768 62.8603 253.248 61.3004C216.148 38.1749 210.558 25.2461 189.05 17.6559C185.714 16.4875 182.319 15.4978 178.878 14.691C164.435 11.2006 151.161 10.7042 134.794 11.4657C110.78 12.5164 89.4968 16.9769 67.7754 20.0682C60.7524 21.0667 53.0758 21.9404 44.666 22.4613C17.8857 24.1513 -20.9228 23.1164 -70.3226 12.0114" stroke="white" stroke-width="0.5" stroke-miterlimit="10"/>
<path d="M859.179 295.289C820.477 290.25 762.773 279.82 706.973 245.289C668.753 221.434 643.954 193.561 625.305 174.694C618.982 168.284 613.159 161.695 607.336 155.376C574.649 119.975 554.111 91.0024 539.204 71.1608C524.869 52.0774 515.535 41.3543 495.764 42.2431C482.796 42.8561 469.651 47.9277 460.358 53.4319C446.779 61.5028 443.02 68.8842 437.264 76.7348C434.406 80.5895 431.872 84.3856 427.76 87.4816C412.513 98.9694 392.445 100.974 361.71 95.5574C329.896 89.9416 291.208 75.0692 261.396 57.8457C258.633 56.2386 256.002 54.654 253.504 53.0919C215.463 29.5576 209.56 17.5413 189.333 10.3152C186.029 9.14224 182.665 8.14617 179.255 7.33116C164.629 3.71994 151.37 3.15662 135.521 3.93265C112.687 4.99426 91.7819 9.4185 69.0093 12.5975C62.017 13.5927 54.4115 14.4621 46.0791 15.0403C19.5154 16.9286 -19.2576 16.5927 -68.4474 7.11703" stroke="white" stroke-width="0.5" stroke-miterlimit="10"/>
<path d="M858.657 299.641C821.85 295.763 762.7 286.665 704.397 250.999C664.783 226.605 639.297 197.718 621.139 178.669C614.758 171.976 608.914 165.122 603.126 158.51C571.018 121.805 551.052 90.6153 536.035 69.0065C521.706 48.4517 511.688 36.4751 492.529 37.2692C480.04 37.798 466.857 43.2717 457.649 49.3359C444.336 58.1068 441.044 66.413 436.025 74.5972C433.494 78.6946 431.113 82.6148 427.044 85.7903C412.345 97.1992 390.584 98.3885 360.553 90.3826C328.979 81.9651 290.789 66.5217 261.637 49.5248C258.906 47.9247 256.298 46.345 253.812 44.7858C214.807 20.8978 208.626 9.73132 189.681 2.86933C186.403 1.69863 183.067 0.698711 179.686 -0.126403C164.874 -3.8489 151.606 -4.5045 136.326 -3.72246C114.687 -2.5863 94.1399 1.80694 70.3394 5.05869C63.38 6.04121 55.8318 6.92334 47.596 7.56297C21.2393 9.64733 -17.4983 10.0105 -66.4642 2.14715" stroke="white" stroke-width="0.5" stroke-miterlimit="10"/>
<path d="M858.183 303.953C823.265 301.226 762.673 293.481 701.869 256.669C660.862 231.737 634.745 201.858 617.04 182.569C610.577 175.568 604.706 168.477 598.99 161.54C567.449 123.498 548.108 90.1629 532.917 66.7625C518.551 44.747 507.817 31.57 489.217 32.2375C477.217 32.6843 463.997 38.5506 454.866 45.1727C441.823 54.6245 439.025 63.8617 434.689 72.3574C432.466 76.6933 430.259 80.7322 426.218 84.0042C412.182 95.3597 389.238 93.8425 359.418 85.1523C327.588 75.9064 290.401 57.9206 261.92 41.1524C259.267 39.5629 256.614 37.9734 254.162 36.4283C214.241 12.1069 207.727 1.85831 190.061 -4.63004C186.815 -5.80579 183.511 -6.8121 180.161 -7.64492C165.165 -11.4882 151.959 -12.2001 137.155 -11.3929C116.647 -10.2967 96.5567 -6.02256 71.705 -2.59298C64.7689 -1.62533 57.279 -0.780377 49.1006 -0.0378862C22.9731 2.18742 -15.7492 3.29525 -64.4531 -2.94732" stroke="white" stroke-width="0.5" stroke-miterlimit="10"/>
<path d="M857.632 308.199C824.604 306.662 762.588 300.235 699.262 262.283C656.823 236.803 630.114 205.892 612.886 186.438C606.411 179.133 600.442 171.8 594.785 164.597C563.724 125.339 545.07 89.671 529.804 64.5309C515.461 41.0079 504.088 26.6475 485.983 27.2043C474.472 27.5692 461.196 33.8237 452.154 40.9964C439.359 51.1842 437.087 61.2994 433.429 70.1257C431.541 74.716 429.49 78.8598 425.49 82.2209C412.05 93.508 387.671 90.1502 358.315 79.9098C326.476 68.8489 290.025 49.3032 262.227 32.7563C259.574 31.1668 256.987 29.5921 254.518 28.1234C213.672 3.36664 206.859 -5.98648 190.466 -12.1128C187.221 -13.2817 183.919 -14.281 180.571 -15.1065C166.679 -18.7376 152.287 -20.0651 137.966 -19.0361C118.626 -17.9216 98.9437 -13.7273 73.0419 -10.1697C66.1408 -9.22438 58.7114 -8.33598 50.655 -7.55644C13.032 -4.0979 -24.835 -4.23249 -62.4324 -7.95839" stroke="white" stroke-width="0.5" stroke-miterlimit="10"/>
<path d="M857.136 312.427C825.994 312.058 762.54 306.966 696.713 267.869C652.919 241.858 625.537 209.957 608.721 190.273C534.098 102.847 522.459 21.0909 482.695 22.1082C471.673 22.391 458.341 29.0339 449.395 36.7687C430.292 53.2724 436.252 70.3201 424.706 80.384C396.398 105.066 305.767 50.4166 254.83 19.7077C205.167 -10.2382 204.469 -16.4934 181.077 -22.6779C140.248 -33.4965 115.164 -21.6937 52.1922 -15.1698C14.7629 -11.3466 -22.9198 -10.6484 -60.4651 -13.0823" stroke="white" stroke-width="0.5" stroke-miterlimit="10"/>
<path d="M856.532 315.158C824.468 315.196 763.089 309.782 700.161 272.379C656.735 246.52 630.8 214.689 612.678 193.894C540.267 110.905 528.585 35.811 488.823 33.4729C473.289 32.5557 456.99 34.0035 445.298 39.1665C422.322 49.3226 426.786 63.9452 412.753 73.0274C382.028 92.9267 297.017 44.1102 248.377 15.513C201.009 -12.4018 199.987 -17.5567 174.825 -22.1298C133.013 -29.7303 109.324 -19.612 49.9249 -13.1179C12.8668 -9.07251 -24.4899 -8.52477 -61.6507 -11.4819" stroke="white" stroke-width="0.5" stroke-miterlimit="10"/>
<path d="M855.901 318.003C802.344 318.444 749.682 304.266 703.586 276.995C660.525 251.297 636.098 219.529 616.61 197.621C546.562 118.932 534.587 49.3627 494.917 44.9411C474.786 42.705 456.181 39.144 441.175 41.6794C415.436 45.9943 417.69 57.613 400.773 65.7858C368.459 81.376 288.243 37.9094 241.89 11.4217C196.903 -14.443 195.569 -18.5953 168.54 -21.4783C125.894 -26.038 103.439 -17.3292 47.6312 -10.951C10.9559 -6.68924 -26.0656 -6.28943 -62.8244 -9.75806" stroke="white" stroke-width="0.5" stroke-miterlimit="10"/>
<path d="M854.78 323.064C802.676 323.974 751.344 310.389 706.512 283.824C663.827 258.279 640.9 226.573 620.053 203.562C552.567 129.087 538.358 71.685 500.53 58.6261C476.866 50.4581 455.137 46.8461 436.554 46.3955C408.478 45.7048 408.379 53.5665 388.296 60.7473C355.049 72.6348 278.939 34.0146 234.924 9.54734C192.219 -14.1888 190.718 -17.4965 161.776 -18.6194C118.354 -20.306 97.0776 -12.8486 44.8406 -6.58086C8.54089 -2.0896 -28.1581 -1.83618 -64.5163 -5.82572" stroke="white" stroke-width="0.5" stroke-miterlimit="10"/>
<path d="M853.073 330.77C802.427 332.144 752.427 319.142 708.866 293.271C666.551 267.868 645.132 236.226 622.914 212.12C558.072 141.767 543.036 89.3603 505.554 74.9253C477.706 64.2077 453.736 51.9451 431.363 53.7299C400.576 56.1852 399.362 56.5572 375.248 58.3272C343.472 72.9348 269.07 32.7095 227.366 10.2871C186.989 -11.3808 185.313 -13.8557 154.42 -13.1369C110.286 -12.1062 90.1365 -5.71149 41.4786 0.407618C5.55387 5.12413 -30.8265 5.22757 -66.7775 0.715439" stroke="white" stroke-width="0.5" stroke-miterlimit="10"/>
<path d="M851.325 338.657C802.137 340.503 753.462 328.112 711.144 302.971C669.194 277.729 649.299 246.125 625.7 220.931C563.598 154.621 547.85 106.785 510.568 91.493C478.425 78.3212 452.646 63.0131 426.092 61.3274C391.854 59.1513 389.371 56.4775 362.122 56.1703C329.513 68.2091 259.17 31.588 219.8 11.2953C181.748 -8.30448 179.91 -10.0441 147.055 -7.38593C102.181 -3.78444 83.1817 1.71318 38.0976 7.66239C2.54691 12.605 -33.5199 12.558 -69.0576 7.52292" stroke="white" stroke-width="0.5" stroke-miterlimit="10"/>
<path d="M849.543 346.697C801.829 348.994 754.495 337.2 713.436 312.786C671.853 287.696 653.502 256.132 628.5 229.857C569.184 167.52 552.775 124.025 515.472 108.147C479.103 92.6667 449.709 80.0639 420.839 69.0297C385.191 55.4019 379.4 56.4929 349.013 54.1181C315.51 63.6348 249.238 30.6104 212.124 12.3902C176.399 -5.14138 174.41 -6.20305 139.58 -1.54822C94.0753 4.53811 76.1283 9.26702 34.653 15.024C-0.525134 20.1874 -36.2826 19.9896 -71.4014 14.4373" stroke="white" stroke-width="0.5" stroke-miterlimit="10"/>
<path d="M847.738 354.842C809.91 357.25 761.141 350.081 715.676 322.708C674.41 297.858 657.666 266.23 631.257 238.892C574.811 180.466 557.744 141.163 520.4 124.926C479.683 107.23 447.634 91.6446 415.533 76.8391C377.09 59.096 369.666 51.0099 335.85 52.1729C300.813 53.376 239.276 29.775 204.471 13.6092C171.075 -1.8638 168.923 -2.28039 132.131 4.40398C85.8807 12.8596 69.0842 16.9619 31.1381 22.479C7.5488 25.9078 -27.6702 29.4246 -73.8155 21.4449" stroke="white" stroke-width="0.5" stroke-miterlimit="10"/>
<path d="M845.904 363.131C807.12 365.918 760.459 358.455 717.897 332.767C676.996 308.078 661.827 276.438 633.985 248.061C580.469 193.501 562.861 158.315 525.29 141.837C480.188 122.047 445.433 103.398 410.208 84.7854C368.859 62.9324 359.908 51.2925 322.669 50.3647C287.166 49.5112 229.312 29.0001 196.78 14.9608C165.694 1.54221 163.352 1.62433 124.642 10.4984C77.6609 21.2564 62.0225 24.834 27.6427 30.0794C4.35582 33.6353 -30.3762 37.26 -76.2121 28.6075" stroke="white" stroke-width="0.5" stroke-miterlimit="10"/>
<path d="M844.046 371.514C804.267 374.722 759.755 366.924 720.092 342.93C679.557 318.403 665.984 286.746 636.688 257.335C586.144 206.588 567.974 175.476 530.164 158.855C480.607 137.066 443.151 115.275 404.858 92.8362C360.524 66.866 350.067 51.8971 309.462 48.661C273.435 45.788 219.312 28.3774 189.074 16.4191C160.359 5.04848 157.757 5.62404 117.137 16.6995C69.3766 29.7091 54.9388 32.8413 24.122 37.7843C1.1259 41.4747 -33.1085 45.2497 -78.632 35.8651" stroke="white" stroke-width="0.5" stroke-miterlimit="10"/>
<path d="M842.16 380.022C801.468 383.599 759.015 375.505 722.262 353.208C682.094 328.832 670.144 297.134 639.366 266.724C591.842 219.752 574.792 188.196 535.003 175.985C478.595 158.669 440.814 127.269 399.482 101.002C352.124 70.9152 340.251 42.8005 296.23 47.0719C259.449 50.6735 209.337 27.8205 181.332 17.9898C154.963 8.69157 152.116 9.69373 109.599 23.0034C61.0391 38.22 47.8401 41.0056 20.5758 45.6037C-2.12216 49.4403 -35.8717 53.3328 -81.0795 43.2467" stroke="white" stroke-width="0.5" stroke-miterlimit="10"/>
<path d="M840.213 388.807C798.562 392.782 758.228 384.346 724.349 363.818C684.557 339.595 674.256 307.822 641.97 276.446C597.458 233.197 579.688 206.38 539.778 193.451C479.029 173.751 438.363 139.597 394.022 109.499C343.601 75.2876 330.745 45.2821 282.914 45.8144C244.973 46.2439 199.206 27.6494 173.527 19.8964C149.5 12.6398 146.334 14.0421 101.995 29.6528C52.5939 47.0372 40.6613 49.5324 16.9463 53.7548C-5.44608 57.7493 -38.7065 61.7401 -83.6082 50.9505" stroke="white" stroke-width="0.5" stroke-miterlimit="10"/>
<path d="M838.145 398.145C795.544 402.521 757.32 393.782 726.347 374.879C686.922 350.808 678.308 318.927 644.475 286.618C603.087 247.086 584.496 225.015 544.445 211.364C479.359 189.18 435.792 152.381 388.473 118.456C334.947 80.0816 320.786 48.6851 269.508 45.0177C230.517 42.2294 189.037 27.8903 165.613 22.25C143.95 17.0298 140.439 18.8163 94.2827 36.7492C44.0263 56.2781 33.357 58.5423 13.2262 62.3667C-8.86691 66.5477 -41.6892 70.5955 -86.2274 59.1151" stroke="white" stroke-width="0.5" stroke-miterlimit="10"/>
<path d="M836.04 407.646C792.478 412.42 756.37 403.358 728.295 386.159C689.24 362.23 682.354 330.191 646.931 297.009C608.647 261.14 589.286 243.858 549.072 229.499C479.709 204.735 433.154 165.37 382.875 127.624C326.185 85.0823 310.471 52.6504 256.054 44.4309C216.119 38.3981 178.813 28.3198 157.659 24.8252C138.374 21.6243 134.473 23.7654 86.5301 44.0671C35.3627 65.7182 26.0809 67.8691 9.45581 71.198C-12.3252 75.5984 -44.6192 79.7031 -88.8969 67.4991" stroke="white" stroke-width="0.5" stroke-miterlimit="10"/>
<path d="M833.749 417.988C789.23 423.15 755.275 413.724 730.059 398.271C691.421 374.404 686.28 342.221 649.203 308.231C614.05 276.001 593.905 263.524 553.505 248.462C479.925 221.031 430.311 179.195 377.131 137.632C317.354 90.9397 298.601 61.6912 242.454 44.684C202.443 32.5738 168.454 29.5912 149.55 28.238C132.618 27.031 128.324 29.5458 78.6247 52.2133C26.5347 75.994 18.6393 77.9912 5.54426 80.85C-15.9109 85.543 -47.7477 89.6188 -91.7098 76.7134" stroke="white" stroke-width="0.5" stroke-miterlimit="10"/>
<path d="M831.481 428.224C786.012 433.787 754.161 424.046 731.835 410.284C693.574 386.571 690.308 354.062 651.496 319.358C619.49 290.74 598.566 283.088 557.97 267.333C480.2 237.15 427.482 192.914 371.321 147.534C308.375 96.6538 287.798 64.9178 228.788 44.8318C187.798 30.9018 158.024 30.6864 141.396 31.5404C126.809 32.3156 122.098 35.1786 70.6717 60.2584C17.6177 86.1295 11.1564 88.0739 1.56391 90.4064C-19.5261 95.5309 -50.9312 99.4218 -94.5871 85.8129" stroke="white" stroke-width="0.5" stroke-miterlimit="10"/>
<path d="M829.212 438.469C782.814 444.428 752.988 434.364 733.622 422.3C695.766 398.746 694.438 365.765 653.79 330.484C624.939 305.44 603.237 302.655 562.426 286.2C480.536 253.182 424.653 206.591 365.562 157.437C299.444 102.378 276.977 68.0994 215.173 44.9802C173.034 29.2232 147.615 31.7356 133.271 34.8487C121.032 37.5064 115.922 40.812 62.7483 68.3095C8.71859 96.2785 3.73293 98.2092 -2.36565 99.9634C-22.9852 105.903 -54.0681 109.245 -97.418 94.9322" stroke="white" stroke-width="0.5" stroke-miterlimit="10"/>
</g>
</g>
</svg>
