<svg width="640" height="311" viewBox="0 0 640 311" fill="none" xmlns="http://www.w3.org/2000/svg">
<mask id="mask0_369_1153" style="mask-type:alpha" maskUnits="userSpaceOnUse" x="0" y="0" width="640" height="311">
<rect width="640" height="311" rx="16" fill="white"/>
</mask>
<g mask="url(#mask0_369_1153)">
<path d="M104.107 -230.963C239.403 -172.894 371.146 123.94 330.987 204.952C304.658 258.059 166.464 221.018 126.003 221.372C70.8318 221.835 181.889 195.438 217.212 140.881C259.182 76.0488 271.459 -119.715 376.857 -57.5132C468.837 -3.21281 466.402 95.0793 538.192 111.331C603.128 126.002 673.423 61.1295 722.408 4.4158" stroke="white" stroke-width="0.5" stroke-miterlimit="10"/>
<path d="M102.627 -225.28C231.367 -166.246 357.699 120.898 321.472 199.1C297.729 250.331 167.003 214.652 129.634 214.711C77.835 214.774 184.206 189.31 218.734 137.134C260.119 74.568 273.586 -112.333 375.346 -52.3219C466.145 1.13744 461.429 101.142 533.269 119.845C597.844 136.399 669.684 73.7226 719.73 18.7646" stroke="white" stroke-width="0.5" stroke-miterlimit="10"/>
<path d="M101.152 -219.628C223.337 -159.628 344.263 117.806 311.972 193.22C290.815 242.576 167.547 208.256 133.271 208.021C84.8443 207.641 186.528 183.152 220.265 133.347C261.065 73.047 275.726 -104.97 373.841 -47.161C463.456 5.46727 456.395 107.43 528.361 128.331C592.506 147.002 665.949 86.2953 717.067 33.0857" stroke="white" stroke-width="0.5" stroke-miterlimit="10"/>
<path d="M99.6836 -213.934C215.31 -152.958 330.84 114.727 302.468 187.38C283.905 234.831 168.087 201.899 136.904 201.37C91.8478 200.473 188.866 176.997 221.8 129.569C262.086 71.5439 277.873 -97.6057 372.354 -42.0073C460.774 9.79712 451.373 113.615 523.442 136.803C587.214 157.363 662.208 98.8753 714.403 47.3944" stroke="white" stroke-width="0.5" stroke-miterlimit="10"/>
<path d="M98.2031 -208.26C207.333 -146.303 317.413 111.597 292.962 181.522C276.996 227.058 168.638 195.517 140.56 194.644C98.8589 193.332 191.204 170.856 223.328 125.794C263.068 70.0447 280.01 -90.2303 370.848 -36.8446C458.085 14.1287 446.382 119.696 518.544 145.293C581.916 167.768 658.492 111.455 711.74 61.7172" stroke="white" stroke-width="0.5" stroke-miterlimit="10"/>
<path d="M96.7344 -202.589C199.326 -139.651 304.003 108.446 283.458 175.658C270.096 219.25 169.201 189.132 144.206 187.963C105.909 186.163 193.577 164.707 224.868 122.016C264.074 68.5354 282.156 -82.8479 369.361 -31.6724C455.392 18.4746 441.38 125.821 513.635 153.785C576.629 178.171 654.797 124.034 709.086 76.047" stroke="white" stroke-width="0.5" stroke-miterlimit="10"/>
<path d="M95.2656 -196.903C191.311 -132.997 290.614 105.145 273.954 169.809C263.207 211.417 169.722 182.72 147.846 181.273C112.942 178.952 195.94 158.571 226.397 118.249C265.082 67.0308 284.292 -75.4954 367.837 -26.5056C452.688 22.8004 436.347 131.92 508.708 162.277C571.293 188.533 651.007 136.634 706.404 90.374" stroke="white" stroke-width="0.5" stroke-miterlimit="10"/>
<path d="M93.7871 -191.23C183.287 -126.356 277.203 101.84 264.45 163.95C256.322 203.555 170.342 176.322 151.491 174.596C119.981 171.712 198.329 152.442 227.979 114.476C266.173 65.4846 286.385 -67.9436 366.404 -21.3359C449.959 27.3307 431.397 138.011 503.863 170.77C566.098 198.911 647.342 149.226 703.804 104.701" stroke="white" stroke-width="0.5" stroke-miterlimit="10"/>
<path d="M92.3125 -185.558C175.274 -119.703 263.772 98.4652 254.94 158.088C249.383 195.635 170.958 169.913 155.133 167.906C127.074 164.358 200.723 146.312 229.468 110.709C267.14 64.0213 288.422 -60.565 364.862 -16.1745C447.219 31.6781 426.376 144.07 498.909 179.254C560.759 209.25 643.567 161.809 701.095 119.02" stroke="white" stroke-width="0.5" stroke-miterlimit="10"/>
<path d="M90.8438 -179.882C167.26 -113.058 250.318 95.0018 245.436 152.23C242.418 187.678 171.588 163.476 158.769 161.227C134.198 156.908 203.093 140.178 230.998 106.933C268.196 62.5296 290.603 -53.1899 363.402 -10.9799C444.561 36.0587 421.429 150.151 494.037 187.771C555.514 219.616 639.877 174.415 698.478 133.375" stroke="white" stroke-width="0.5" stroke-miterlimit="10"/>
<path d="M89.3691 -174.209C159.247 -106.405 236.804 91.4585 235.936 146.37C235.405 179.676 172.306 157.04 162.359 154.534C141.401 149.247 205.484 134.059 232.482 103.144C269.218 61.0174 292.681 -45.811 361.813 -5.84108C441.761 40.3909 416.345 156.163 489.036 196.233C550.151 229.886 636.046 186.973 695.712 147.669" stroke="white" stroke-width="0.5" stroke-miterlimit="10"/>
<path d="M87.8945 -168.526C151.239 -99.7613 223.219 87.8332 226.436 140.521C228.334 171.627 172.4 152.134 166.063 147.86C147.937 145.28 207.986 127.967 234.065 99.3896C270.359 59.5455 294.886 -38.4214 360.362 -0.656845C439.125 44.7539 411.425 162.207 484.173 204.74C544.926 240.244 632.363 199.579 693.103 162.013" stroke="white" stroke-width="0.5" stroke-miterlimit="10"/>
<path d="M86.4258 -162.853C143.212 -93.1118 209.5 84.1313 216.922 134.658C221.17 163.543 172.942 145.873 169.698 141.178C154.941 138.333 210.489 121.887 235.595 95.6116C271.473 58.067 297.015 -31.051 358.863 4.48363C436.427 49.0804 406.456 168.206 479.271 213.205C539.669 250.53 628.632 212.141 690.447 176.314" stroke="white" stroke-width="0.5" stroke-miterlimit="10"/>
<path d="M84.9512 -157.179C135.202 -86.4672 195.634 80.4036 207.422 128.8C213.908 155.447 173.478 139.612 173.369 134.497C161.974 131.375 213.015 115.814 237.155 91.8537C272.651 56.6064 299.189 -23.6779 357.395 9.68607C433.763 53.459 401.523 174.248 474.39 221.73C534.439 260.857 624.95 224.77 687.801 190.671" stroke="white" stroke-width="0.5" stroke-miterlimit="10"/>
<path d="M83.4766 -151.508C127.189 -79.8155 181.589 76.679 197.922 122.938C206.541 147.351 174.024 133.35 176.979 127.808C168.957 124.401 215.507 109.75 238.667 88.0381C273.824 55.0786 301.313 -16.3524 355.873 14.8087C431.055 57.7604 396.549 180.203 469.456 230.176C529.162 271.116 621.176 237.309 685.122 204.954" stroke="white" stroke-width="0.5" stroke-miterlimit="10"/>
<path d="M82.0078 -145.832C119.174 -73.1714 167.355 73.0566 188.409 117.077C199.053 139.302 174.556 127.089 180.625 121.131C175.964 117.447 218.052 103.714 240.187 84.3015C275.013 53.7582 303.449 -8.96768 354.358 20.0103C428.36 62.121 391.595 186.229 464.539 238.702C523.92 281.43 617.432 249.922 682.45 219.316" stroke="white" stroke-width="0.5" stroke-miterlimit="10"/>
<path d="M80.5293 -140.159C111.158 -66.5179 152.855 69.5748 178.905 111.218C191.481 131.335 175.098 120.829 184.263 114.441C182.973 110.482 220.618 97.7141 241.716 80.525C276.258 52.3884 305.593 -1.61296 352.869 25.1548C425.681 66.422 386.674 192.169 459.628 247.167C518.684 291.681 613.701 262.486 679.783 233.615" stroke="white" stroke-width="0.5" stroke-miterlimit="10"/>
<path d="M79.0547 -134.477C103.14 -59.8768 138.243 66.3462 169.405 105.369C183.868 123.472 175.637 114.567 187.905 107.761C189.986 103.527 223.225 91.7443 243.213 76.7383C277.525 51.0755 307.714 5.73408 351.324 30.3359C422.958 70.7523 381.712 198.17 454.681 255.673C513.415 301.965 609.934 275.091 677.081 247.956" stroke="white" stroke-width="0.5" stroke-miterlimit="10"/>
<path d="M77.5918 -128.801C95.1287 -53.2228 123.541 63.379 159.907 99.5098C176.233 115.729 177.214 110.181 191.546 101.082C197.519 97.2854 225.864 85.7728 244.795 72.9849C278.913 49.8676 309.918 13.0822 349.872 35.5206C420.331 75.0763 376.841 204.142 449.807 264.178C508.239 312.252 606.243 287.685 674.462 262.299" stroke="white" stroke-width="0.5" stroke-miterlimit="10"/>
<path d="M76.1055 -123.1C87.1066 -46.5508 108.837 60.7262 150.434 93.6891C168.675 108.154 177.193 103.05 195.235 94.4357C204.288 90.1105 228.532 79.9876 246.367 69.2495C280.352 48.7993 312.106 20.4682 348.41 40.7234C417.707 79.4013 371.975 210.148 444.942 272.706C503.073 322.552 602.545 300.319 671.832 276.659" stroke="white" stroke-width="0.5" stroke-miterlimit="10"/>
<path d="M74.6367 -117.456C79.0995 -39.9265 94.2365 58.2483 140.891 87.7879C161.097 100.585 177.413 96.1706 198.831 87.7138C211.099 82.8633 231.137 74.1342 247.854 65.4409C281.754 47.8061 314.26 27.7097 346.871 45.8234C415.078 83.5154 367.137 215.94 439.991 281.129C497.895 332.671 598.777 312.831 669.136 290.919" stroke="white" stroke-width="0.5" stroke-miterlimit="10"/>
<path d="M73.1738 -111.78C71.0909 -33.2824 79.7741 55.9839 131.393 81.9291C198.05 115.49 281.812 16.0595 345.375 51.0176C412.387 87.8858 362.166 222.013 435.083 289.646C492.624 343.039 595.046 325.457 666.473 305.271" stroke="white" stroke-width="0.5" stroke-miterlimit="10"/>
</g>
</svg>
