<svg width="640" height="311" viewBox="0 0 640 311" fill="none" xmlns="http://www.w3.org/2000/svg">
<mask id="mask0_369_1090" style="mask-type:alpha" maskUnits="userSpaceOnUse" x="0" y="0" width="640" height="311">
<path d="M0 16C0 7.16345 7.16344 0 16 0H624C632.837 0 640 7.16344 640 16V295C640 303.837 632.837 311 624 311H16C7.16343 311 0 303.837 0 295V16Z" fill="white"/>
</mask>
<g mask="url(#mask0_369_1090)">
<path d="M-4.99558 171.425C-4.01699 95.857 94.4858 35.4435 173.11 26.4155C263.717 16.0211 306.036 76.3882 372.381 47.9604C432.928 22.04 428.613 -41.5161 473.537 -57.3275C514.824 -71.8565 586.84 -42.2511 721.523 132.479" stroke="white" stroke-opacity="0.4" stroke-width="0.5" stroke-miterlimit="10"/>
<path d="M717.314 141.515C584.322 -30.6562 512.082 -61.7301 469.978 -48.8158C438.778 -39.2009 430.375 -7.00512 408.454 20.1126C397.56 34.0221 383.383 45.0077 367.197 52.083C314.181 75.3019 276.79 43.5747 215.978 35.654C200.472 33.5897 184.777 33.3556 169.216 34.9568C90.1199 42.8339 -8.01509 96.8215 -10.9511 169.891" stroke="white" stroke-opacity="0.4" stroke-width="0.5" stroke-miterlimit="10"/>
<path d="M713.079 150.528C581.78 -19.0732 509.354 -51.6077 466.525 -40.3066C435.042 -31.9967 425.723 -1.16865 403.596 24.7385C392.348 38.2426 378.165 48.9993 362.13 56.1887C309.942 79.5756 273.017 51.4086 212.091 44.2313C196.604 42.3757 180.966 42.1291 165.428 43.4955C85.8785 50.4669 -11.9085 97.7706 -16.8019 168.342" stroke="white" stroke-opacity="0.4" stroke-width="0.5" stroke-miterlimit="10"/>
<path d="M708.861 159.512C579.286 -7.48228 506.638 -41.4596 463.026 -31.8037C431.238 -24.7699 421.052 4.6582 398.682 29.3724C387.105 42.4606 372.929 52.9922 357.057 60.2959C305.647 83.8575 269.301 59.223 208.199 52.8103C192.72 51.1305 177.12 50.86 161.592 52.0022C81.5838 57.9253 -15.8372 98.6862 -22.688 166.76" stroke="white" stroke-opacity="0.4" stroke-width="0.5" stroke-miterlimit="10"/>
<path d="M704.647 168.562C576.76 4.09977 503.944 -31.3013 459.512 -23.2857C427.459 -17.5201 416.341 10.5163 393.736 33.9975C381.823 46.6768 367.627 56.9962 351.891 64.4152C301.258 88.1515 265.454 67.0673 204.148 61.4095C188.712 59.9372 173.186 59.6557 157.706 60.5674C77.2269 65.4438 -19.8265 99.6746 -28.6475 165.252" stroke="white" stroke-opacity="0.4" stroke-width="0.5" stroke-miterlimit="10"/>
<path d="M700.483 177.58C574.25 15.6808 501.056 -22.3804 456 -14.78C423.834 -9.39054 411.621 16.2852 388.82 38.6327C376.574 50.8828 362.359 60.9891 346.766 68.5302C296.91 92.4411 261.674 74.904 200.256 70.0025C184.847 68.7052 169.371 68.4019 153.923 69.0945C72.9657 72.873 -23.7152 100.612 -34.492 163.704" stroke="white" stroke-opacity="0.4" stroke-width="0.5" stroke-miterlimit="10"/>
<path d="M696.205 186.612C571.729 27.2757 498.573 -10.8944 452.492 -6.34034C419.966 -2.96215 406.886 22.1338 383.894 43.2819C371.33 55.097 357.093 64.9952 341.643 72.6576C292.564 96.7431 257.856 82.7452 196.313 78.6016C180.933 77.4949 165.505 77.1784 150.092 77.6534C68.6633 80.3851 -27.6565 101.543 -40.3859 162.175" stroke="white" stroke-opacity="0.4" stroke-width="0.5" stroke-miterlimit="10"/>
<path d="M691.985 195.636C569.239 38.8529 495.887 -0.763314 448.984 2.24173C416.212 4.29725 402.105 27.8703 378.959 47.9053C366.087 59.2746 351.822 68.9616 336.508 76.7336C288.221 101.005 254.044 90.5717 192.358 87.1493C178.007 86.3692 162.721 85.8121 146.247 86.148C64.3295 87.7963 -31.5985 102.512 -46.2885 160.62" stroke="white" stroke-opacity="0.4" stroke-width="0.5" stroke-miterlimit="10"/>
<path d="M687.771 204.66C566.693 50.4505 493.225 9.50819 445.482 10.7192C412.465 11.569 397.319 33.6207 374.002 52.5188C360.821 63.4369 346.522 72.93 331.344 80.8396C283.834 105.286 250.209 98.3755 188.376 95.7399C173.981 95.1217 158.736 94.5853 142.363 94.6871C60.0727 95.25 -35.5357 103.468 -52.1847 159.065" stroke="white" stroke-opacity="0.4" stroke-width="0.5" stroke-miterlimit="10"/>
<path d="M683.541 213.674C564.169 62.034 490.557 19.7559 441.973 19.2642C408.726 18.9194 392.471 39.4068 369.113 57.1643C355.641 67.6236 341.31 76.9268 326.273 84.9746C279.526 109.597 246.444 106.237 184.465 104.297C170.089 103.832 154.832 103.298 138.561 103.178C55.6979 102.616 -39.4851 104.349 -58.09 157.46" stroke="white" stroke-opacity="0.4" stroke-width="0.5" stroke-miterlimit="10"/>
<path d="M679.321 222.698C561.654 73.6138 487.888 30.0274 438.493 27.764C405.019 26.2375 387.701 45.1282 364.206 61.8096C350.443 71.791 336.069 80.9007 321.168 89.0852C275.212 113.881 242.67 114.058 180.549 112.943C166.131 112.666 150.911 112.114 134.756 111.784C51.4107 110.086 -43.3821 105.364 -63.97 155.98" stroke="white" stroke-opacity="0.4" stroke-width="0.5" stroke-miterlimit="10"/>
<path d="M675.11 231.722C559.136 85.2088 485.203 40.3027 434.959 36.2726C401.245 33.5788 382.849 50.849 359.269 66.4476C345.713 75.4087 331.82 84.4778 316.022 93.203C270.841 118.16 238.843 121.901 176.582 121.533C162.148 121.427 146.951 120.859 130.875 120.324C47.0463 117.489 -47.3692 106.314 -69.9 154.443" stroke="white" stroke-opacity="0.4" stroke-width="0.5" stroke-miterlimit="10"/>
<path d="M670.894 240.745C556.618 96.841 482.605 50.591 431.459 44.7878C397.504 40.9139 377.988 56.5428 354.339 71.0828C340.383 79.665 326.425 88.5339 310.895 97.3163C266.496 122.487 235.046 129.725 172.635 130.118C158.185 130.197 143 129.614 127.063 128.853C42.762 124.854 -51.2856 107.253 -75.7723 152.897" stroke="white" stroke-opacity="0.4" stroke-width="0.5" stroke-miterlimit="10"/>
<path d="M666.707 249.767C554.106 108.384 479.872 60.9124 427.963 53.3053C393.772 48.2897 373.13 62.2261 349.414 75.733C335.044 83.9123 321.036 92.5924 305.825 101.438C262.186 126.746 231.309 137.57 168.696 138.731C154.214 138.97 139.066 138.369 123.235 137.413C38.444 132.227 -55.223 108.198 -81.6654 151.356" stroke="white" stroke-opacity="0.4" stroke-width="0.5" stroke-miterlimit="10"/>
<path d="M662.452 258.782C551.582 119.965 477.229 71.246 424.449 61.8098C390.008 55.6413 368.251 67.8707 344.496 80.354C329.708 88.1178 315.628 96.6377 300.647 105.546C257.81 131.025 227.448 145.39 164.749 147.303C149.612 147.609 134.469 147.139 119.38 145.895C34.1338 139.582 -59.199 109.171 -87.5636 149.801" stroke="white" stroke-opacity="0.4" stroke-width="0.5" stroke-miterlimit="10"/>
<path d="M658.23 267.806C549.054 131.56 474.472 81.5548 420.981 70.3082C386.29 62.9997 363.403 73.4982 339.548 84.9917C324.341 92.327 310.214 100.684 295.515 109.66C253.443 135.316 223.636 153.229 160.823 155.886C145.723 156.384 130.608 155.909 115.569 154.463C29.8078 146.862 -63.1072 110.109 -93.4854 148.209" stroke="white" stroke-opacity="0.4" stroke-width="0.5" stroke-miterlimit="10"/>
<path d="M654.016 276.829C546.544 143.14 471.734 91.9527 417.43 78.8175C382.519 70.3913 358.481 79.1092 334.631 89.6128C319.004 96.5067 304.835 104.739 290.403 113.772C249.121 139.601 219.842 161.053 156.852 164.475C141.789 165.148 126.697 164.654 111.709 162.999C25.513 154.229 -67.0455 111.065 -99.3746 146.718" stroke="white" stroke-opacity="0.4" stroke-width="0.5" stroke-miterlimit="10"/>
<path d="M649.787 285.855C544.027 154.786 469.091 102.301 413.93 87.3345C378.732 77.7732 353.593 84.6911 329.714 94.248C313.611 100.682 299.439 108.784 285.277 117.887C244.768 143.865 216.047 168.891 152.907 173.074C137.881 173.915 122.81 173.403 107.875 171.545C21.2098 161.546 -70.987 112.009 -105.272 145.176" stroke="white" stroke-opacity="0.4" stroke-width="0.5" stroke-miterlimit="10"/>
<path d="M645.572 294.879C541.562 166.309 466.377 112.683 410.424 95.8909C374.967 85.2167 348.724 90.3091 324.795 98.961C308.312 104.961 294.031 112.921 280.161 122.078C240.433 148.256 212.251 176.807 148.969 181.712C133.98 182.72 118.928 182.189 104.047 180.13C16.9116 168.888 -74.9797 113.05 -111.161 143.686" stroke="white" stroke-opacity="0.4" stroke-width="0.5" stroke-miterlimit="10"/>
<path d="M641.359 303.904C538.991 177.911 463.651 123.068 406.921 104.357C371.178 92.56 343.841 95.7996 319.859 103.521C302.942 108.977 288.643 116.9 275.032 126.142C236.093 152.493 208.452 184.582 145.022 190.273C130.072 191.455 115.035 190.906 100.211 188.638C12.6131 176.114 -78.8638 113.909 -117.062 142.093" stroke="white" stroke-opacity="0.4" stroke-width="0.5" stroke-miterlimit="10"/>
<path d="M637.129 312.915C536.467 189.491 460.932 133.515 403.459 112.854C367.447 99.9589 339.024 101.318 314.994 108.148C297.645 113.073 283.299 120.937 269.965 130.208C231.793 156.748 204.694 192.387 141.125 198.825C126.209 200.168 111.183 199.601 96.4107 197.139C8.40192 183.222 -82.7515 114.858 -122.934 140.534" stroke="white" stroke-opacity="0.4" stroke-width="0.5" stroke-miterlimit="10"/>
<path d="M632.924 321.938C472.324 125.779 372.802 97.2607 310.011 112.791C241.465 129.742 223.12 197.701 137.127 207.431C36.2481 218.832 -79.6052 111.88 -128.859 138.995" stroke="white" stroke-opacity="0.4" stroke-width="0.5" stroke-miterlimit="10"/>
</g>
</svg>
