<svg width="310" height="311" viewBox="0 0 310 311" fill="none" xmlns="http://www.w3.org/2000/svg">
<mask id="mask0_369_1116" style="mask-type:alpha" maskUnits="userSpaceOnUse" x="0" y="0" width="310" height="311">
<rect width="310" height="311" rx="16" fill="#389BD9"/>
</mask>
<g mask="url(#mask0_369_1116)">
<g opacity="0.4">
<path d="M580.978 195.093C524.864 177.882 487.884 154.057 464.359 135.286C440.57 116.304 424.549 97.6824 391.098 82.2437C354.218 65.1523 327.991 63.4681 317.472 63.446C302.888 63.4207 303.292 65.6588 278.97 67.6791C232.25 71.5615 225.29 63.7719 203.708 68.3961C167.925 76.0595 172.576 100.57 133.036 117.99C104.4 130.612 60.4662 136.033 25.8636 118.057C-6.72083 101.128 -5.34868 76.7952 -41.0923 65.4893C-55.7745 60.8449 -68.924 61.1602 -95.2142 61.7928C-128.899 62.5621 -152.496 67.4324 -161.841 68.9133C-189.527 73.3146 -232.01 70.6075 -294.639 36.2828" stroke="#24B7B1" stroke-width="0.5" stroke-miterlimit="10"/>
<path d="M579.658 202.773C525.267 186.615 486.973 163.994 461.154 144.225C440.213 128.015 425.074 111.953 402.398 97.8836C397.437 94.8124 392.174 91.7385 386.419 88.8189C350.15 70.4338 324.515 66.5578 313.743 65.2608C299.298 63.5137 298.954 65.0463 275.131 66.9677C258.343 68.3127 246.538 68.5965 237.466 68.4932C222.047 68.3126 214.624 66.9073 201.682 70.2127C196.857 71.4281 192.19 73.1877 187.773 75.4566C167.347 85.9428 164.023 104.167 131.147 117.073C102.53 128.307 59.2518 132.075 25.2623 114.305C22.5699 112.896 19.9514 111.353 17.4169 109.682C-8.15629 92.8123 -10.1926 72.5223 -41.6 62.5432C-44.9086 61.4868 -48.285 60.6495 -51.7068 60.0367C-63.1974 57.9415 -75.6137 58.1731 -95.3001 58.6408C-127.924 59.4611 -151.149 64.2231 -161.455 65.8643C-168.998 67.0412 -176.627 67.5919 -184.264 67.5105C-210.703 67.2976 -246.516 60.0504 -293.682 35.5445" stroke="#24B7B1" stroke-width="0.5" stroke-miterlimit="10"/>
<path d="M578.18 211.121C525.525 196.002 485.848 174.687 457.806 153.763C435.536 137.154 419.708 120.282 397.584 105.873C392.537 102.575 387.294 99.2078 381.565 96.05C345.909 76.3627 321.082 69.5017 309.831 67.7296C295.328 65.464 294.414 65.0925 271.126 66.9141C254.818 68.2014 242.968 68.8909 233.971 69.2285C218.819 69.7746 211.765 69.01 199.523 72.7033C194.853 74.1354 190.341 76.0273 186.055 78.3507C166.236 88.8699 161.601 105.67 129.077 116.846C100.481 126.685 57.8577 128.798 24.4814 111.234C21.6629 109.715 19.0714 108.246 16.6932 106.642C-9.71724 89.3816 -12.0556 69.9468 -42.3076 60.3286C-45.5877 59.2702 -48.9352 58.4271 -52.3282 57.8049C-63.9973 55.6074 -76.3787 55.7653 -95.6014 56.2892C-127.167 57.1241 -150.007 61.8074 -161.264 63.521C-168.745 64.6856 -176.31 65.2559 -183.884 65.2264C-210.123 65.1836 -245.904 58.5667 -292.875 35.5128" stroke="#24B7B1" stroke-width="0.5" stroke-miterlimit="10"/>
<path d="M576.575 220.029C525.648 205.984 484.639 185.867 454.321 163.905C430.771 146.836 414.219 129.191 392.668 114.437C387.525 110.911 382.292 107.256 376.608 103.856C341.561 82.8832 317.2 74.7688 305.817 70.7642C291.734 65.8172 289.772 65.7046 267.011 67.4245C251.17 68.633 239.272 69.7367 230.307 70.5057C215.433 71.772 208.726 71.6614 197.187 75.734C192.703 77.3935 188.368 79.4226 184.229 81.8C165.018 92.3438 159.022 107.699 126.922 117.152C98.3114 125.588 56.3769 126.063 23.6156 108.697C20.8233 107.184 18.2492 105.718 15.8827 104.144C-11.3379 86.4535 -14.0122 67.9028 -43.0721 58.5632C-46.3265 57.5021 -49.6479 56.6526 -53.015 56.0202C-64.8607 53.7119 -77.2461 53.8058 -95.9693 54.3484C-126.456 55.1932 -148.928 59.7854 -161.142 61.6421C-168.573 62.7754 -176.079 63.3604 -183.598 63.3924C-209.638 63.5197 -245.387 57.5418 -292.152 35.9331" stroke="#24B7B1" stroke-width="0.5" stroke-miterlimit="10"/>
<path d="M574.977 228.956C525.773 215.964 483.446 197.068 450.845 174.056C426.008 156.516 408.743 138.092 387.742 123.007C382.513 119.254 377.3 115.306 371.642 111.667C337.199 89.4354 313.538 79.2611 301.791 73.8219C287.913 67.393 285.153 66.3473 262.883 67.9579C247.468 69.1059 235.581 70.6094 226.67 71.7878C212.076 73.7655 205.722 74.3282 194.878 78.7696C190.588 80.652 186.43 82.8155 182.433 85.2456C163.825 95.7947 156.467 109.714 124.77 117.494C96.1466 124.518 54.9074 123.365 22.7505 106.204C19.9932 104.698 17.4366 103.236 15.0749 101.681C-12.9665 83.5675 -15.9787 65.9908 -43.8435 56.8762C-47.0759 55.8246 -50.3705 54.9689 -53.7089 54.3141C-65.7156 51.9073 -78.0506 51.9399 -96.3442 52.4862C-125.774 53.3541 -147.871 57.8657 -161.035 59.8398C-168.412 60.9581 -175.859 61.5615 -183.321 61.6454C-209.171 61.9496 -244.887 56.5934 -291.457 36.4453" stroke="#24B7B1" stroke-width="0.5" stroke-miterlimit="10"/>
<path d="M574.064 234.735C526.584 222.798 482.927 205.129 448.052 181.069C421.94 163.052 403.959 143.821 383.501 128.439C378.196 124.453 372.978 120.241 367.361 116.34C333.538 92.8533 310.542 80.6564 298.479 73.73C284.783 65.8776 281.189 63.8185 259.47 65.3417C247.473 66.1947 235.538 67.7431 223.726 69.9786C209.387 72.6535 203.399 73.9104 193.287 78.6832C188.869 80.7799 185.185 83.2358 181.276 85.5522C163.278 96.0722 154.535 108.614 123.278 114.683C94.6177 120.281 54.0893 117.513 22.5455 100.558C19.8143 99.058 17.2752 97.5999 14.9271 96.0662C-13.9496 77.5531 -17.2667 60.804 -43.9636 52.0349C-47.1695 50.988 -50.4356 50.1295 -53.7446 49.4641C-65.9337 46.9723 -78.23 46.9141 -96.027 47.4514C-124.385 48.3186 -146.119 52.765 -160.226 54.8582C-167.554 55.9583 -174.947 56.5759 -182.357 56.7068C-208.009 57.1898 -243.685 52.4745 -290.058 33.7696" stroke="#24B7B1" stroke-width="0.5" stroke-miterlimit="10"/>
<path d="M573.549 238.887C527.804 227.988 482.821 211.538 445.659 186.445C418.271 167.95 399.595 147.899 379.649 132.277C374.261 128.047 369.058 123.568 363.468 119.42C330.217 94.6939 307.876 80.4811 295.509 72.0521C282.012 62.8251 277.601 59.7115 256.4 61.1309C244.521 61.9268 232.732 63.7205 221.162 66.4926C207.117 69.8551 201.457 71.8158 192.043 76.9852C187.868 79.2616 184.391 81.8981 180.501 84.2546C163.09 94.8125 152.99 105.812 122.168 110.268C93.4575 114.419 53.6449 110.055 22.7161 93.2978C20.0198 91.8053 17.5069 90.3529 15.1549 88.8364C-14.5629 69.9498 -18.217 54.0485 -43.7149 45.6497C-46.895 44.5994 -50.1351 43.7346 -53.4183 43.0598C-65.7685 40.4696 -78.0473 40.3338 -95.37 40.9206C-122.662 41.813 -144.019 46.1701 -159.09 48.396C-166.363 49.4736 -173.696 50.1066 -181.048 50.2913C-206.511 50.9511 -242.157 46.8748 -288.33 29.6046" stroke="#24B7B1" stroke-width="0.5" stroke-miterlimit="10"/>
<path d="M572.994 243.094C528.977 233.268 482.692 218.006 443.226 191.877C414.573 172.897 395.215 152.011 375.792 136.097C370.326 131.605 365.119 126.854 359.563 122.479C326.897 96.5347 305.184 80.3367 292.554 70.3506C279.152 59.7624 274.018 55.5874 253.343 56.9051C241.553 57.6848 229.887 59.7655 218.567 63.1083C204.838 67.145 199.487 69.842 190.778 75.3458C186.871 77.8161 183.588 80.6037 179.719 83.0281C162.9 93.5617 151.402 103.081 121.037 105.912C92.2706 108.596 53.198 102.651 22.9065 86.1142C20.2365 84.6275 17.741 83.1789 15.4045 81.6748C-15.1409 62.3544 -19.0767 47.34 -43.426 39.2103C-46.58 38.1654 -49.7907 37.295 -53.0431 36.6031C-65.5622 33.8675 -77.8158 33.7012 -94.6603 34.3202C-120.889 35.21 -141.866 39.5057 -157.896 41.8383C-165.117 42.9045 -172.395 43.5581 -179.694 43.7958C-204.951 44.5999 -240.566 41.1624 -286.538 25.3633" stroke="#24B7B1" stroke-width="0.5" stroke-miterlimit="10"/>
<path d="M572.453 247.319C530.159 238.547 482.56 224.488 440.807 197.327C410.88 177.861 390.841 156.131 371.922 139.974C366.389 135.251 361.164 130.253 355.665 125.582C323.575 98.4183 302.475 80.2313 289.589 68.69C276.298 56.753 270.435 51.4975 250.279 52.7117C238.581 53.4728 227.044 55.8148 215.991 59.6721C202.506 64.3763 197.546 67.8268 189.539 73.6649C185.889 76.336 182.788 79.2535 178.949 81.7478C162.72 92.2657 149.846 100.283 119.932 101.515C91.0991 102.703 52.7674 95.2123 23.0648 78.8673C20.4209 77.3863 17.943 75.9415 15.6182 74.467C-15.7771 54.7713 -20.0023 40.5969 -43.1847 32.7764C-46.3154 31.7358 -49.4997 30.8591 -52.7242 30.15C-65.4092 27.2969 -77.6774 27.0732 -94.0224 27.711C-119.175 28.6193 -139.787 32.8411 -156.768 35.291C-163.937 36.3505 -171.158 37.031 -178.401 37.3296C-203.475 38.3364 -239.052 35.5035 -284.828 21.1563" stroke="#24B7B1" stroke-width="0.5" stroke-miterlimit="10"/>
<path d="M571.908 251.528C531.344 243.784 482.414 230.916 438.373 202.73C407.14 182.763 386.474 160.19 368.037 143.805C362.433 138.823 357.201 133.578 351.738 128.663C320.227 100.307 299.728 80.1377 286.605 67.0001C273.38 53.7496 266.823 47.385 247.194 48.4974C235.574 49.2643 224.158 51.8889 213.392 56.2687C200.192 61.6222 195.578 65.8531 188.277 72.0169C184.884 74.8887 181.993 77.9333 178.13 80.4946C162.475 90.9844 148.22 97.4444 118.762 97.1319C89.8663 96.8067 52.2804 87.79 23.1822 71.6493C20.5732 70.176 18.1126 68.735 15.783 67.3227C-16.4514 47.2449 -20.9749 33.9086 -42.9767 26.4184C-46.0846 25.3638 -49.2492 24.4793 -52.4561 23.7689C-65.3225 20.8672 -77.518 20.5238 -93.4188 21.1413C-117.503 22.0661 -137.742 26.216 -155.683 28.7813C-162.166 29.7132 -169.29 30.4781 -177.146 30.8389C-202.02 32.0158 -237.567 29.8219 -283.137 16.9199" stroke="#24B7B1" stroke-width="0.5" stroke-miterlimit="10"/>
<path d="M571.396 255.616C532.596 248.945 482.344 237.278 435.994 208.073C403.533 187.62 382.175 164.174 364.209 147.566C358.545 142.327 353.292 136.844 347.87 131.666C316.904 102.11 296.985 79.9633 283.686 65.2513C270.538 50.6359 263.284 43.2157 244.173 44.2244C232.619 44.9972 221.313 47.8943 210.839 52.7664C197.904 58.774 193.705 63.8091 187.06 70.27C183.925 73.3425 181.224 76.519 177.417 79.1558C162.34 89.6003 146.701 94.5565 117.717 92.6674C88.7324 90.7783 51.9107 80.2755 23.4256 64.3411C20.8428 62.8734 18.3997 61.4363 16.0876 60.0278C-16.9948 39.566 -21.8164 27.0679 -42.6706 19.8916C-45.7449 18.8383 -48.8754 17.9522 -52.0482 17.2373C-65.1067 14.2123 -77.2538 13.8163 -92.6454 14.4908C-115.669 15.4217 -135.527 19.51 -154.427 22.1821C-160.88 23.1026 -167.949 23.8703 -175.728 24.2932C-200.402 25.6403 -235.916 24.0767 -281.292 12.6353" stroke="#24B7B1" stroke-width="0.5" stroke-miterlimit="10"/>
<path d="M570.883 259.649C533.776 254.043 482.261 243.554 433.602 213.339C399.836 192.412 377.884 168.068 360.381 151.272C354.648 145.765 349.374 140.051 343.975 134.608C313.573 103.847 294.222 79.7465 280.765 63.4104C267.639 47.5169 259.702 38.9359 241.176 39.8649C228.875 40.4829 216.882 44.7003 208.32 49.1795C195.645 55.8221 191.778 61.6614 185.869 68.4366C183.008 71.7136 180.488 75.0201 176.709 77.7352C162.206 88.1153 145.218 91.5304 116.68 88.1038C87.6641 84.645 51.5486 72.6707 23.6766 56.9424C21.1287 55.4824 18.7031 54.0491 16.3996 52.6425C-17.52 31.79 -22.631 20.1319 -42.296 13.2878C-45.3456 12.2342 -48.45 11.3418 -51.596 10.6143C-64.801 7.46696 -76.9365 7.01928 -91.9004 7.70595C-113.856 8.65337 -133.315 12.6755 -153.175 15.463C-159.596 16.3633 -166.614 17.1511 -174.303 17.6209C-198.788 19.1448 -234.27 18.2115 -279.435 8.19808" stroke="#24B7B1" stroke-width="0.5" stroke-miterlimit="10"/>
<path d="M570.391 263.633C535.006 259.09 482.249 249.685 431.232 218.548C396.288 197.038 373.615 171.904 356.564 154.891C350.783 149.111 345.459 143.17 340.136 137.472C310.251 105.551 291.473 79.4257 277.844 61.5343C264.738 44.3266 256.204 34.6574 238.128 35.4589C226.271 36.0116 214.253 40.5848 205.756 45.5479C193.342 52.8256 189.905 59.4815 184.642 66.5604C182.03 70.0363 179.713 73.4593 175.953 76.251C162.013 86.6097 143.665 88.4176 115.564 83.533C86.4782 78.4692 51.1067 65.0586 23.8497 49.528C21.3238 48.0788 18.9186 46.6499 16.6339 45.2414C-18.1462 24.0202 -23.5429 13.1849 -42.036 6.66904C-45.0566 5.6114 -48.1322 4.71323 -51.2497 3.97833C-64.6226 0.722041 -76.7445 0.214091 -91.2351 0.913851C-112.112 1.87112 -131.225 5.86051 -152.046 8.72702C-158.438 9.62447 -165.392 10.4084 -173.01 10.9298C-197.297 12.6324 -232.746 12.3295 -277.719 3.78525" stroke="#24B7B1" stroke-width="0.5" stroke-miterlimit="10"/>
<path d="M569.913 267.558C536.262 264.062 482.181 255.859 428.876 223.697C392.658 201.701 369.357 175.654 352.755 158.477C346.921 152.442 341.578 146.261 336.287 140.299C306.931 107.202 288.676 79.0776 274.947 59.5927C261.846 41.0582 252.686 30.2587 235.17 30.9747C223.751 31.4516 211.698 36.3874 203.28 41.8555C191.108 49.7643 188.098 57.2541 183.509 64.6339C181.196 68.3286 179.018 71.8635 175.298 74.7269C161.859 85.0145 141.964 86.0869 114.506 78.8678C85.6397 71.2776 50.7226 57.3521 24.07 42.0258C21.5732 40.583 19.1883 39.1586 16.9153 37.7526C-18.7457 16.2125 -24.3969 6.14354 -41.7182 -0.0440121C-44.7148 -1.09964 -47.7649 -2.00128 -50.8563 -2.7453C-64.399 -6.10192 -76.5297 -6.69308 -90.4994 -5.98791C-110.283 -4.96342 -129.069 -1.00198 -150.83 1.93017C-157.193 2.81611 -164.094 3.61154 -171.624 4.1883C-195.721 6.0678 -231.138 6.39525 -275.907 -0.695212" stroke="#24B7B1" stroke-width="0.5" stroke-miterlimit="10"/>
<path d="M569.478 271.446C537.554 268.987 482.156 262.004 426.564 228.81C389.072 206.328 365.193 179.386 349.006 161.993C343.098 155.68 337.729 149.286 332.503 143.031C303.666 108.728 285.983 78.6691 272.094 57.5687C258.96 37.717 249.145 25.8352 232.14 26.437C221.169 26.84 209.082 32.1296 200.734 38.1009C188.809 46.6237 186.251 54.953 182.286 62.6137C180.254 66.5234 178.236 70.1653 174.542 73.1158C161.709 83.3551 140.731 81.9871 113.468 74.1509C84.3659 65.8138 50.3668 49.5958 24.3273 34.4758C21.9017 33.0425 19.476 31.6091 17.2337 30.2159C-19.2646 8.28507 -25.2208 -0.956257 -41.3721 -6.80688C-44.3396 -7.86707 -47.3609 -8.77447 -50.4239 -9.52543C-64.1344 -12.991 -76.208 -13.6329 -89.7432 -12.905C-108.493 -11.9166 -126.861 -8.06254 -149.583 -4.97004C-155.924 -4.0975 -162.772 -3.33559 -170.249 -2.66608C-194.137 -0.65949 -229.54 0.339449 -274.069 -5.28955" stroke="#24B7B1" stroke-width="0.5" stroke-miterlimit="10"/>
<path d="M568.97 275.274C538.774 273.888 482.074 268.093 424.176 233.871C385.375 210.895 360.955 183.022 345.204 165.481C339.284 158.894 333.827 152.282 328.655 145.786C300.256 110.387 283.201 78.2247 269.244 55.5555C256.131 34.3446 245.732 21.3956 229.179 21.8977C218.655 22.2267 206.517 27.8665 198.25 34.3342C186.551 43.5206 184.475 52.6417 181.13 60.6004C179.404 64.7395 177.529 68.4761 173.872 71.5068C161.584 81.6846 139.294 78.6568 112.455 69.4229C83.3449 59.4491 50.019 41.8246 24.6032 26.904C22.1776 25.4707 19.8131 24.0508 17.5553 22.7264C-19.789 0.402969 -26.0182 -8.03086 -41.0064 -13.5551C-43.9725 -14.6091 -46.9922 -15.5101 -50.0533 -16.2545C-62.7537 -19.5287 -75.9127 -20.7257 -89.0061 -19.7979C-106.688 -18.7929 -124.683 -15.0108 -148.365 -11.8029C-154.674 -10.9505 -161.467 -10.1494 -168.832 -9.44651C-203.23 -6.3279 -237.851 -6.44926 -272.226 -9.80895" stroke="#24B7B1" stroke-width="0.5" stroke-miterlimit="10"/>
<path d="M568.524 279.088C540.051 278.756 482.037 274.163 421.852 238.909C381.813 215.455 356.778 186.689 341.404 168.94C273.177 90.1069 262.536 16.3864 226.18 17.3037C216.103 17.5587 203.914 23.5487 195.735 30.5233C178.269 45.4048 183.718 60.777 173.162 69.8518C147.28 92.1079 64.4184 42.8298 17.8481 15.1392C-27.558 -11.8634 -28.1959 -17.5038 -49.5835 -23.0804C-86.9119 -32.8357 -109.846 -22.193 -167.42 -16.3103C-201.641 -12.8629 -236.093 -12.2333 -270.42 -14.428" stroke="#24B7B1" stroke-width="0.5" stroke-miterlimit="10"/>
<path d="M567.966 281.549C538.651 281.584 482.533 276.702 425 242.975C385.296 219.658 361.585 190.955 345.016 172.205C278.811 97.3721 268.131 29.6588 231.777 27.5505C217.575 26.7234 202.673 28.0289 191.983 32.6845C170.977 41.8424 175.058 55.0278 162.228 63.2173C134.137 81.1608 56.4132 37.1423 11.9429 11.3559C-31.3651 -13.8153 -32.2992 -18.4636 -55.3045 -22.5871C-93.5321 -29.4407 -115.19 -20.3168 -169.498 -14.461C-203.38 -10.8132 -237.534 -10.3193 -271.51 -12.9858" stroke="#24B7B1" stroke-width="0.5" stroke-miterlimit="10"/>
<path d="M567.388 284.114C518.422 284.512 470.274 271.727 428.13 247.137C388.76 223.964 366.427 195.319 348.609 175.564C284.566 104.609 273.618 41.8775 237.347 37.8904C218.943 35.8741 201.933 32.6632 188.212 34.9494C164.68 38.8402 166.741 49.3169 151.274 56.6864C121.73 70.7443 48.3897 31.5499 6.01077 7.66564C-35.1206 -15.6569 -36.3402 -19.4011 -61.0526 -22.0007C-100.043 -26.1123 -120.573 -18.2594 -171.597 -12.5081C-205.128 -8.66524 -238.976 -8.30472 -272.584 -11.4324" stroke="#24B7B1" stroke-width="0.5" stroke-miterlimit="10"/>
<path d="M566.362 288.678C518.724 289.499 471.792 277.249 430.802 253.295C391.777 230.261 370.815 201.671 351.755 180.922C290.054 113.767 277.063 62.0066 242.478 50.2313C220.842 42.866 200.975 39.6091 183.986 39.2027C158.316 38.5799 158.226 45.669 139.864 52.1439C109.467 62.8631 39.8811 28.0387 -0.361031 5.97629C-39.4049 -15.4268 -40.7773 -18.4095 -67.2383 -19.422C-106.939 -20.9428 -126.391 -14.2184 -174.15 -8.5667C-207.338 -4.51688 -240.891 -4.28837 -274.133 -7.88578" stroke="#24B7B1" stroke-width="0.5" stroke-miterlimit="10"/>
<path d="M564.808 295.627C518.503 296.866 472.79 285.142 432.963 261.814C394.275 238.908 374.692 210.376 354.379 188.639C295.095 125.201 281.348 77.9453 247.078 64.9291C221.618 55.2648 199.703 44.2075 179.247 45.8169C151.099 48.0308 149.989 48.3663 127.943 49.9624C98.8907 63.1342 30.8658 26.8625 -7.26269 6.64397C-44.1794 -12.8943 -45.7113 -15.1259 -73.9558 -14.4777C-114.307 -13.5484 -132.729 -7.78215 -177.216 -2.26447C-210.061 1.98847 -243.323 2.08175 -276.193 -1.9869" stroke="#24B7B1" stroke-width="0.5" stroke-miterlimit="10"/>
<path d="M563.202 302.738C518.231 304.403 473.728 293.229 435.037 270.56C396.683 247.799 378.494 219.301 356.918 196.584C300.139 136.791 285.741 93.6565 251.655 79.8673C222.267 67.9901 198.698 54.1866 174.421 52.6667C143.118 50.7044 140.847 48.2934 115.934 48.0164C86.1199 58.8719 21.8069 25.8502 -14.1885 7.55202C-48.978 -10.1213 -50.6589 -11.69 -80.6975 -9.29306C-121.725 -6.04555 -139.096 -1.08828 -180.315 4.27621C-212.818 8.733 -245.794 8.69067 -278.285 4.15044" stroke="#24B7B1" stroke-width="0.5" stroke-miterlimit="10"/>
<path d="M561.577 309.989C517.953 312.059 474.676 301.425 437.137 279.411C399.119 256.786 382.341 228.325 359.482 204.632C305.25 148.422 290.248 109.202 256.142 94.8851C222.891 80.9261 196.017 69.5619 169.622 59.6122C137.029 47.3239 131.735 48.3077 103.952 46.1662C73.3207 54.7476 12.7303 24.9691 -21.2029 8.53969C-53.8652 -7.26876 -55.6834 -8.22609 -87.5278 -4.02876C-129.132 1.45936 -145.541 5.72348 -183.461 10.9147C-215.624 15.5705 -248.316 15.3921 -280.424 10.3856" stroke="#24B7B1" stroke-width="0.5" stroke-miterlimit="10"/>
<path d="M559.923 317.334C525.338 319.505 480.749 313.041 439.181 288.359C401.453 265.951 386.144 237.432 361.999 212.78C310.391 160.097 294.787 124.657 260.644 110.016C223.418 94.0591 194.116 80.0057 164.767 66.6554C129.619 50.6563 122.831 43.3649 91.9139 44.4136C59.8804 45.4985 3.61824 24.2171 -28.2034 9.6402C-58.7365 -4.31197 -60.7037 -4.68761 -94.3421 1.33977C-136.628 8.9643 -151.985 12.6634 -186.678 17.6383C-208.245 20.73 -240.445 23.9012 -282.635 16.7058" stroke="#24B7B1" stroke-width="0.5" stroke-miterlimit="10"/>
<path d="M558.254 324.807C522.795 327.32 480.134 320.591 441.22 297.428C403.826 275.165 389.957 246.635 364.502 221.047C315.573 171.849 299.474 140.122 265.124 125.263C223.888 107.419 192.112 90.6028 159.906 73.8194C122.102 54.1143 113.918 43.6184 79.871 42.7819C47.4114 42.0122 -5.48346 23.5171 -35.2263 10.8577C-63.6479 -1.24202 -65.7893 -1.16797 -101.181 6.83388C-144.135 16.5345 -158.433 19.7604 -189.865 24.4903C-211.156 27.6967 -242.911 30.9651 -284.818 23.1631" stroke="#24B7B1" stroke-width="0.5" stroke-miterlimit="10"/>
<path d="M556.552 332.367C520.184 335.259 479.487 328.227 443.224 306.592C406.163 284.475 393.755 255.93 366.97 229.41C320.758 183.651 304.145 155.596 269.577 140.609C224.268 120.962 190.023 101.312 155.012 81.0789C114.479 57.6613 104.917 44.1636 67.7932 41.2456C34.8543 38.655 -14.6295 22.9557 -42.2753 12.1726C-68.5289 1.91963 -70.9077 2.43862 -108.046 12.4255C-151.712 24.1564 -164.912 26.9808 -193.087 31.4379C-214.112 34.7656 -245.412 38.1696 -287.033 29.7074" stroke="#24B7B1" stroke-width="0.5" stroke-miterlimit="10"/>
<path d="M554.829 340.037C517.625 343.262 478.811 335.964 445.209 315.859C408.483 293.878 397.558 265.296 369.418 237.875C325.968 195.519 310.379 167.065 274.001 156.054C222.428 140.44 187.886 112.126 150.097 88.4408C106.798 61.3115 95.9434 35.9602 55.6958 39.8117C22.0682 43.0594 -23.7489 22.4525 -49.3527 13.588C-73.4617 5.20374 -76.0643 6.10741 -114.937 18.1089C-159.334 31.8299 -171.402 34.3418 -196.329 38.4878C-217.081 41.9474 -247.938 45.4573 -289.271 36.3626" stroke="#24B7B1" stroke-width="0.5" stroke-miterlimit="10"/>
<path d="M553.05 347.959C514.969 351.543 478.092 343.937 447.118 325.426C410.737 303.584 401.319 274.934 371.8 246.642C331.104 207.643 314.857 183.462 278.368 171.804C222.827 154.04 185.646 123.244 145.107 96.1031C99.0079 65.2546 87.2538 38.1983 43.523 38.6783C8.83444 39.0655 -33.0094 22.2986 -56.488 15.3076C-78.4552 8.76432 -81.3495 10.0288 -121.888 24.1051C-167.054 39.7809 -177.964 42.0308 -199.646 45.8382C-220.119 49.4401 -250.528 53.0386 -291.581 43.3096" stroke="#24B7B1" stroke-width="0.5" stroke-miterlimit="10"/>
<path d="M551.156 356.381C512.206 360.326 477.259 352.446 448.941 335.401C412.896 313.696 405.02 284.949 374.087 255.815C336.246 220.168 319.249 200.267 282.632 187.958C223.124 167.954 183.292 134.772 140.029 104.182C91.0913 69.5787 78.1445 41.2681 31.2621 37.9612C-4.38666 35.4468 -42.3116 22.5171 -63.727 17.4312C-83.5331 12.7241 -86.7434 14.335 -128.943 30.5053C-174.892 48.1147 -184.646 50.1564 -203.052 53.6049C-223.251 57.375 -253.26 61.0249 -293.98 50.673" stroke="#24B7B1" stroke-width="0.5" stroke-miterlimit="10"/>
<path d="M549.235 364.947C509.407 369.251 476.394 361.08 450.726 345.572C415.018 323.994 408.722 295.105 376.336 265.184C341.334 232.84 323.633 217.257 286.866 204.309C223.448 181.979 180.884 146.483 134.915 112.447C83.0846 74.0869 68.7172 44.8427 18.9652 37.4311C-17.5466 31.9912 -51.6546 22.9034 -70.9951 19.7523C-88.6275 16.866 -92.1935 18.7967 -136.027 37.1031C-182.808 56.6261 -191.295 58.5656 -206.495 61.5673C-226.409 65.5351 -255.934 69.2365 -296.417 58.232" stroke="#24B7B1" stroke-width="0.5" stroke-miterlimit="10"/>
<path d="M547.132 374.272C506.429 378.927 475.385 370.427 452.331 356.492C417.004 334.971 412.304 305.951 378.405 275.303C346.266 246.24 327.847 234.989 290.911 221.408C223.638 196.673 178.277 158.95 129.656 121.471C75.0028 79.3683 57.8566 52.9945 6.52342 37.6589C-30.0579 26.739 -61.1338 24.0496 -78.4169 22.8294C-93.8979 21.741 -97.8235 24.0086 -143.263 44.4482C-190.888 65.8915 -198.106 67.6925 -210.079 70.2703C-229.695 74.502 -258.803 78.1772 -298.996 66.5403" stroke="#24B7B1" stroke-width="0.5" stroke-miterlimit="10"/>
<path d="M545.063 383.503C503.491 388.519 474.371 379.735 453.959 367.326C418.977 345.944 415.991 316.63 380.506 285.337C351.244 259.531 332.113 252.632 294.997 238.425C223.894 211.209 175.695 171.32 124.348 130.401C66.7977 84.5216 47.9847 55.9048 -5.96701 37.793C-43.4437 25.2322 -70.6655 25.0379 -85.8679 25.808C-99.2043 26.507 -103.512 29.0886 -150.53 51.7033C-199.036 75.0317 -204.943 76.7849 -213.714 78.8882C-232.996 83.509 -261.709 87.0175 -301.623 74.7462" stroke="#24B7B1" stroke-width="0.5" stroke-miterlimit="10"/>
<path d="M542.989 392.742C500.568 398.115 473.299 389.04 455.593 378.162C420.982 356.924 419.768 327.184 382.604 295.371C356.227 272.788 336.385 270.277 299.072 255.439C224.202 225.666 173.109 183.655 119.083 139.332C58.6333 89.6845 38.0915 58.775 -18.4148 37.9281C-56.9409 23.7198 -80.1817 25.9853 -93.2956 28.7924C-104.486 31.1889 -109.158 34.1696 -157.773 58.9644C-207.172 84.1844 -211.73 85.9253 -217.306 87.5071C-236.158 92.8633 -264.576 95.8761 -304.21 82.9704" stroke="#24B7B1" stroke-width="0.5" stroke-miterlimit="10"/>
</g>
</g>
</svg>
