<svg width="310" height="311" viewBox="0 0 310 311" fill="none" xmlns="http://www.w3.org/2000/svg">
<mask id="mask0_160_1450" style="mask-type:alpha" maskUnits="userSpaceOnUse" x="0" y="0" width="310" height="311">
<rect width="310" height="311" rx="16" fill="white"/>
</mask>
<g mask="url(#mask0_160_1450)">
<path d="M54.8672 -126.976C147.706 -87.129 238.109 116.558 210.552 172.148C192.484 208.59 97.6561 183.173 69.8922 183.415C32.0336 183.733 108.241 165.62 132.479 128.183C161.279 83.6952 169.703 -50.6375 242.028 -7.95475C305.144 29.306 303.473 96.7539 352.735 107.906C397.294 117.973 445.53 73.4576 479.144 34.5408" stroke="#24B7B1" stroke-opacity="0.4" stroke-width="0.5" stroke-miterlimit="10"/>
<path d="M53.8516 -123.076C142.192 -82.5668 228.881 114.471 204.022 168.133C187.73 203.287 98.026 178.805 72.384 178.845C36.8394 178.888 109.831 161.415 133.524 125.612C161.922 82.6791 171.163 -45.5722 240.991 -4.39253C303.297 32.2912 300.06 100.914 349.357 113.748C393.669 125.107 442.965 82.099 477.306 44.3869" stroke="#24B7B1" stroke-opacity="0.4" stroke-width="0.5" stroke-miterlimit="10"/>
<path d="M52.8418 -119.197C136.684 -78.0252 219.664 112.349 197.506 164.098C182.988 197.966 98.4017 174.416 74.8817 174.254C41.6513 173.994 111.426 157.19 134.577 123.013C162.574 81.6357 172.634 -40.5189 239.96 -0.850817C301.454 35.2626 296.608 105.23 345.991 119.572C390.007 132.383 440.404 90.7266 475.481 54.2143" stroke="#24B7B1" stroke-opacity="0.4" stroke-width="0.5" stroke-miterlimit="10"/>
<path d="M51.832 -115.29C131.174 -73.4485 210.451 110.236 190.982 160.091C178.244 192.651 98.7706 170.054 77.3727 169.69C46.4551 169.075 113.029 152.966 135.628 120.421C163.272 80.604 174.105 -35.4661 238.938 2.6854C299.611 38.2335 293.161 109.473 342.614 125.384C386.375 139.493 437.835 99.3588 473.651 64.0327" stroke="#24B7B1" stroke-opacity="0.4" stroke-width="0.5" stroke-miterlimit="10"/>
<path d="M50.8203 -111.396C125.705 -68.8818 201.242 108.089 184.463 156.071C173.508 187.318 99.1529 165.674 79.8857 165.075C51.2703 164.175 114.638 148.752 136.681 117.83C163.95 79.5755 175.576 -30.4049 237.909 6.22823C297.77 41.206 289.74 113.646 339.257 131.211C382.743 146.633 435.289 107.991 471.828 73.8612" stroke="#24B7B1" stroke-opacity="0.4" stroke-width="0.5" stroke-miterlimit="10"/>
<path d="M49.8086 -107.505C120.207 -64.3172 192.036 105.926 177.938 152.048C168.769 181.96 99.5352 161.293 82.3832 160.491C56.1042 159.256 116.262 144.533 137.733 115.238C164.637 78.54 177.044 -25.3389 236.884 9.77763C295.919 44.1884 286.304 117.849 335.885 137.038C379.111 153.771 432.75 116.623 470.003 83.6945" stroke="#24B7B1" stroke-opacity="0.4" stroke-width="0.5" stroke-miterlimit="10"/>
<path d="M48.8008 -103.604C114.707 -59.7514 182.849 103.662 171.416 148.034C164.042 176.585 99.8928 156.893 84.8814 155.9C60.9305 154.308 117.883 140.322 138.783 112.654C165.329 77.5075 178.51 -20.2937 235.839 13.323C294.063 47.1567 282.85 122.035 332.504 142.866C375.45 160.882 430.149 125.269 468.163 93.5255" stroke="#24B7B1" stroke-opacity="0.4" stroke-width="0.5" stroke-miterlimit="10"/>
<path d="M47.7871 -99.7109C109.202 -55.1943 173.647 101.393 164.896 144.013C159.318 171.19 100.319 152.503 87.3837 151.318C65.7612 149.339 119.524 136.116 139.869 110.064C166.078 76.4464 179.948 -15.1118 234.857 16.8704C292.192 50.2652 279.455 126.214 329.181 148.693C371.886 168.003 427.635 133.909 466.38 103.357" stroke="#24B7B1" stroke-opacity="0.4" stroke-width="0.5" stroke-miterlimit="10"/>
<path d="M46.7754 -95.8184C103.704 -50.6288 164.43 99.0775 158.37 139.991C154.557 165.755 100.742 148.105 89.8829 146.728C70.6284 144.293 121.166 131.91 140.891 107.479C166.742 75.4422 181.345 -10.0487 233.798 20.412C290.311 53.2484 276.009 130.372 325.781 154.515C368.222 175.098 425.045 142.544 464.521 113.182" stroke="#24B7B1" stroke-opacity="0.4" stroke-width="0.5" stroke-miterlimit="10"/>
<path d="M45.7695 -91.9238C98.2061 -46.0698 155.2 96.7007 151.851 135.97C149.779 160.295 101.176 143.688 92.3796 142.144C75.5188 139.181 122.795 127.701 141.943 104.888C167.468 74.4184 182.844 -4.98808 232.799 23.9763C288.489 56.2541 272.616 134.544 322.44 160.359C364.626 182.21 422.515 151.194 462.727 123.032" stroke="#24B7B1" stroke-opacity="0.4" stroke-width="0.5" stroke-miterlimit="10"/>
<path d="M44.7559 -88.0312C92.7058 -41.5043 145.925 94.2692 145.33 131.95C144.965 154.804 101.667 139.271 94.8413 137.552C80.4602 133.923 124.434 123.501 142.96 102.287C168.168 73.3806 184.268 0.0751713 231.706 27.5025C286.567 59.2267 269.126 138.67 319.006 166.165C360.943 189.258 419.885 159.811 460.827 132.841" stroke="#24B7B1" stroke-opacity="0.4" stroke-width="0.5" stroke-miterlimit="10"/>
<path d="M43.7422 -84.1318C87.209 -36.9454 136.601 91.7815 138.809 127.936C140.111 149.281 101.729 135.905 97.3809 132.972C84.9431 131.201 126.149 119.322 144.044 99.7116C168.949 72.3706 185.779 5.14593 230.709 31.0599C284.756 62.2206 265.748 142.816 315.667 172.002C357.356 196.365 417.355 168.461 459.035 142.684" stroke="#24B7B1" stroke-opacity="0.4" stroke-width="0.5" stroke-miterlimit="10"/>
<path d="M42.7363 -80.2383C81.703 -32.3824 127.189 89.2415 132.283 123.913C135.197 143.734 102.103 131.609 99.8775 128.387C89.7513 126.435 127.868 115.149 145.096 97.1193C169.715 71.3563 187.242 10.2036 229.682 34.5875C282.907 65.1897 262.341 146.934 312.306 177.812C353.751 203.424 414.797 177.081 457.214 152.497" stroke="#24B7B1" stroke-opacity="0.4" stroke-width="0.5" stroke-miterlimit="10"/>
<path d="M41.7246 -76.3447C76.2065 -27.8226 117.675 86.6838 125.764 119.893C130.215 138.178 102.471 127.312 102.397 123.803C94.5773 121.66 129.602 110.982 146.167 94.5408C170.524 70.3541 188.734 15.2633 228.675 38.1575C281.079 68.1945 258.956 151.08 308.957 183.662C350.162 210.51 412.271 185.748 455.399 162.349" stroke="#24B7B1" stroke-opacity="0.4" stroke-width="0.5" stroke-miterlimit="10"/>
<path d="M40.7109 -72.4531C70.7062 -23.258 108.035 84.1282 119.243 115.871C125.157 132.623 102.844 123.016 104.872 119.213C99.3676 116.875 131.31 106.821 147.202 91.9228C171.327 69.306 190.19 20.2902 227.628 41.6729C279.219 71.1463 255.541 155.166 305.569 189.457C346.539 217.551 409.679 194.352 453.558 172.15" stroke="#24B7B1" stroke-opacity="0.4" stroke-width="0.5" stroke-miterlimit="10"/>
<path d="M39.7051 -68.5586C65.2087 -18.699 98.2704 81.6423 112.717 111.849C120.021 127.1 103.211 118.719 107.376 114.631C104.178 112.103 133.058 102.679 148.247 89.3586C172.145 68.3998 191.658 25.3574 226.591 45.242C277.372 74.1383 252.143 159.301 302.197 195.308C342.945 224.628 407.112 203.007 451.727 182.005" stroke="#24B7B1" stroke-opacity="0.4" stroke-width="0.5" stroke-miterlimit="10"/>
<path d="M38.6914 -64.666C59.7084 -14.1335 88.321 79.253 106.196 107.828C114.826 121.633 103.584 114.423 109.873 110.04C108.988 107.323 134.82 98.5621 149.298 86.767C173 67.4598 193.13 30.4041 225.57 48.7721C275.534 77.0896 248.767 163.377 298.828 201.117C339.352 231.662 404.553 211.628 449.898 191.817" stroke="#24B7B1" stroke-opacity="0.4" stroke-width="0.5" stroke-miterlimit="10"/>
<path d="M37.6777 -60.7666C54.2049 -9.57639 78.2924 77.0375 99.6758 103.815C109.6 116.237 103.952 110.126 112.37 105.456C113.799 102.551 136.607 94.4657 150.323 84.1686C173.868 66.5588 194.583 35.4456 224.508 52.3273C273.663 80.061 245.36 167.494 295.432 206.954C335.735 238.718 401.966 220.278 448.042 201.658" stroke="#24B7B1" stroke-opacity="0.4" stroke-width="0.5" stroke-miterlimit="10"/>
<path d="M36.6719 -56.8721C48.7057 -5.01064 68.2024 75.0013 93.1562 99.7941C104.359 110.924 105.032 107.117 114.867 100.873C118.966 98.2678 138.416 90.3679 151.407 81.5928C174.818 65.7298 196.094 40.4877 223.51 55.8849C271.859 83.028 242.016 171.593 292.085 212.789C332.181 245.777 399.431 228.92 446.243 211.5" stroke="#24B7B1" stroke-opacity="0.4" stroke-width="0.5" stroke-miterlimit="10"/>
<path d="M35.6543 -52.96C43.2032 -0.432318 58.1143 73.1809 86.6587 95.8C99.1752 105.726 105.02 102.223 117.401 96.3123C123.613 93.3444 140.249 86.398 152.487 79.0296C175.808 64.9967 197.597 45.5559 222.509 59.455C270.061 85.9957 238.68 175.714 288.749 218.641C328.639 252.845 396.896 237.589 444.441 221.354" stroke="#24B7B1" stroke-opacity="0.4" stroke-width="0.5" stroke-miterlimit="10"/>
<path d="M34.6465 -49.0869C37.7088 4.11369 48.0958 71.4811 80.1101 91.7511C93.9752 100.532 105.172 97.5032 119.869 91.7002C128.286 88.3718 142.036 82.3819 153.508 76.4166C176.77 64.3156 199.076 50.5255 221.453 62.9551C268.257 88.8193 235.359 179.689 285.352 224.421C325.085 259.789 394.31 246.175 442.591 231.139" stroke="#24B7B1" stroke-opacity="0.4" stroke-width="0.5" stroke-miterlimit="10"/>
<path d="M33.6406 -45.1924C32.2113 8.67268 38.1697 69.9271 73.5905 87.7306C119.33 110.76 176.807 42.531 220.425 66.5192C266.408 91.8181 231.946 183.856 281.982 230.265C321.466 266.903 391.748 254.839 440.761 240.987" stroke="#24B7B1" stroke-opacity="0.4" stroke-width="0.5" stroke-miterlimit="10"/>
</g>
</svg>
