<svg width="24" height="24" viewBox="0 0 24 24" fill="none" xmlns="http://www.w3.org/2000/svg">
<path d="M2.33398 11.9997C2.33398 6.66092 6.6619 2.33301 12.0007 2.33301V0.333008C5.55733 0.333008 0.333984 5.55635 0.333984 11.9997H2.33398ZM12.0007 21.6663C6.6619 21.6663 2.33398 17.3384 2.33398 11.9997H0.333984C0.333984 18.443 5.55733 23.6663 12.0007 23.6663V21.6663ZM21.6673 11.9997C21.6673 17.3384 17.3394 21.6663 12.0007 21.6663V23.6663C18.444 23.6663 23.6673 18.443 23.6673 11.9997H21.6673ZM23.6673 11.9997C23.6673 5.55635 18.444 0.333008 12.0007 0.333008V2.33301C17.3394 2.33301 21.6673 6.66092 21.6673 11.9997H23.6673ZM9.00065 11.9997C9.00065 10.3428 10.3438 8.99967 12.0007 8.99967V6.99967C9.23923 6.99967 7.00065 9.23825 7.00065 11.9997H9.00065ZM12.0007 8.99967C13.6575 8.99967 15.0007 10.3428 15.0007 11.9997H17.0007C17.0007 9.23825 14.7621 6.99967 12.0007 6.99967V8.99967ZM15.0007 11.9997C15.0007 13.6565 13.6575 14.9997 12.0007 14.9997V16.9997C14.7621 16.9997 17.0007 14.7611 17.0007 11.9997H15.0007ZM12.0007 14.9997C10.3438 14.9997 9.00065 13.6565 9.00065 11.9997H7.00065C7.00065 14.7611 9.23923 16.9997 12.0007 16.9997V14.9997Z" fill="#24B7B1"/>
</svg>
