<svg width="310" height="311" viewBox="0 0 310 311" fill="none" xmlns="http://www.w3.org/2000/svg">
<mask id="mask0_369_910" style="mask-type:alpha" maskUnits="userSpaceOnUse" x="0" y="0" width="310" height="311">
<path d="M0 16C0 7.16345 7.16344 0 16 0H294C302.837 0 310 7.16344 310 16V295C310 303.837 302.837 311 294 311H16C7.16345 311 0 303.837 0 295V16Z" fill="white"/>
</mask>
<g mask="url(#mask0_369_910)">
<path d="M-74.4424 164.93C-73.7485 111.348 -3.90483 68.5115 51.844 62.1102C116.089 54.74 146.095 97.5435 193.138 77.3866C236.069 59.0077 233.009 13.943 264.863 2.73191C294.137 -7.56992 345.2 13.4219 440.698 137.314" stroke="#24B7B1" stroke-opacity="0.4" stroke-width="0.5" stroke-miterlimit="10"/>
<path d="M437.71 143.722C343.412 21.6431 292.19 -0.389941 262.336 8.767C240.214 15.5845 234.255 38.413 218.712 57.6409C210.988 67.5035 200.936 75.2928 189.458 80.3096C151.867 96.773 125.356 74.2768 82.2364 68.6606C71.2416 67.1968 60.113 67.0309 49.0797 68.1662C-7.00358 73.7515 -76.5865 112.032 -78.6682 163.842" stroke="#24B7B1" stroke-opacity="0.4" stroke-width="0.5" stroke-miterlimit="10"/>
<path d="M434.711 150.112C341.613 29.8563 290.259 6.78762 259.891 14.8007C237.568 20.6929 230.96 42.5516 215.271 60.9211C207.295 70.4962 197.239 78.1233 185.869 83.2209C148.865 99.8035 122.684 79.8316 79.4837 74.7426C68.5024 73.4268 57.4145 73.252 46.3974 74.2208C-10.0075 79.1639 -79.3436 112.705 -82.8133 162.744" stroke="#24B7B1" stroke-opacity="0.4" stroke-width="0.5" stroke-miterlimit="10"/>
<path d="M431.719 156.483C339.843 38.0752 288.331 13.9834 257.409 20.83C234.87 25.8173 227.646 46.6834 211.785 64.2071C203.577 73.4873 193.525 80.9548 182.271 86.1335C145.819 102.84 120.047 85.3728 76.7226 80.8258C65.747 79.6347 54.686 79.443 43.6758 80.2528C-13.0542 84.4526 -82.1308 113.354 -86.9884 161.622" stroke="#24B7B1" stroke-opacity="0.4" stroke-width="0.5" stroke-miterlimit="10"/>
<path d="M428.731 162.9C338.053 46.2875 286.422 21.1863 254.918 26.8698C232.19 30.9579 224.306 50.8372 208.279 67.4866C199.832 76.4769 189.766 83.7939 178.609 89.0544C142.707 105.885 117.32 90.9348 73.8511 86.9231C62.906 85.8792 51.8969 85.6796 40.9213 86.3261C-16.143 89.7837 -84.959 114.055 -91.2136 160.553" stroke="#24B7B1" stroke-opacity="0.4" stroke-width="0.5" stroke-miterlimit="10"/>
<path d="M425.778 169.294C336.272 54.4991 284.373 27.5118 252.426 32.9009C229.618 36.7223 220.959 54.9277 204.792 70.7733C196.109 79.4593 186.029 86.6252 174.974 91.9722C139.623 108.926 114.639 96.4916 71.0902 93.0161C60.1645 92.0963 49.1909 91.8812 38.2375 92.3723C-19.1656 95.0514 -87.7175 114.72 -95.3588 159.455" stroke="#24B7B1" stroke-opacity="0.4" stroke-width="0.5" stroke-miterlimit="10"/>
<path d="M422.744 175.698C334.484 62.7199 282.613 35.6553 249.939 38.8843C226.876 41.2796 217.602 59.074 201.299 74.0691C192.391 82.4466 182.296 89.465 171.341 94.898C136.542 111.976 111.932 102.051 68.2946 99.1126C57.3888 98.3279 46.45 98.1035 35.5213 98.4403C-22.2161 100.377 -90.5119 115.379 -99.5377 158.37" stroke="#24B7B1" stroke-opacity="0.4" stroke-width="0.5" stroke-miterlimit="10"/>
<path d="M419.755 182.097C332.722 70.9287 280.711 42.8387 247.454 44.9694C224.217 46.4269 214.215 63.1414 197.803 77.3473C188.676 85.4087 178.562 92.2773 167.703 97.7881C133.465 114.998 109.232 107.6 65.4933 105.173C55.3176 104.62 44.4792 104.225 32.7983 104.463C-25.2859 105.632 -93.3039 116.066 -103.72 157.268" stroke="#24B7B1" stroke-opacity="0.4" stroke-width="0.5" stroke-miterlimit="10"/>
<path d="M416.767 188.495C330.916 79.1525 278.823 50.1222 244.97 50.9809C221.56 51.5834 210.821 67.2193 194.288 80.619C184.942 88.3605 174.803 95.0916 164.041 100.7C130.354 118.034 106.512 113.134 62.669 111.265C52.4618 110.827 41.6528 110.446 30.0432 110.519C-28.3049 110.918 -96.0963 116.745 -107.901 156.166" stroke="#24B7B1" stroke-opacity="0.4" stroke-width="0.5" stroke-miterlimit="10"/>
<path d="M413.766 194.887C329.125 87.3656 276.93 57.3882 242.481 57.0395C218.908 56.7951 207.382 71.3217 190.82 83.9127C181.267 91.3289 171.106 97.9253 160.444 103.632C127.298 121.09 103.841 118.708 59.8947 117.332C49.7013 117.003 38.8833 116.624 27.346 116.539C-31.408 116.14 -98.8978 117.369 -112.09 155.028" stroke="#24B7B1" stroke-opacity="0.4" stroke-width="0.5" stroke-miterlimit="10"/>
<path d="M410.777 201.284C327.345 95.5759 275.041 64.6708 240.017 63.066C216.282 61.9836 204.003 75.3781 187.344 87.2061C177.585 94.2834 167.393 100.743 156.828 106.546C124.242 124.127 101.168 124.253 57.121 123.463C46.8984 123.266 36.1065 122.875 24.6518 122.641C-34.4446 121.437 -101.658 118.088 -116.256 153.978" stroke="#24B7B1" stroke-opacity="0.4" stroke-width="0.5" stroke-miterlimit="10"/>
<path d="M407.789 207.683C325.557 103.798 273.134 71.9571 237.508 69.0995C213.604 67.1894 200.56 79.4349 183.84 90.4952C174.229 96.849 164.378 103.279 153.176 109.466C121.14 127.162 98.4517 129.815 54.3057 129.554C44.0709 129.479 33.296 129.076 21.8966 128.696C-37.5421 126.686 -104.488 118.762 -120.463 152.889" stroke="#24B7B1" stroke-opacity="0.4" stroke-width="0.5" stroke-miterlimit="10"/>
<path d="M404.798 214.081C323.771 112.046 271.291 79.2521 235.026 75.1373C210.95 72.3905 197.113 83.4722 180.344 93.7818C170.449 99.867 160.552 106.156 149.54 112.383C118.059 130.23 95.7593 135.362 51.5065 135.641C41.2606 135.697 30.4936 135.283 19.1938 134.744C-40.5804 131.909 -107.265 119.428 -124.627 151.792" stroke="#24B7B1" stroke-opacity="0.4" stroke-width="0.5" stroke-miterlimit="10"/>
<path d="M401.828 220.478C321.988 120.23 269.352 86.57 232.546 81.1762C208.303 77.6199 193.667 87.5015 176.851 97.0786C166.661 102.878 156.729 109.033 145.944 115.305C115.001 133.25 93.1078 140.924 48.7119 141.747C38.4435 141.917 27.7027 141.491 16.4775 140.813C-43.6437 137.136 -110.059 120.098 -128.808 150.699" stroke="#24B7B1" stroke-opacity="0.4" stroke-width="0.5" stroke-miterlimit="10"/>
<path d="M398.811 226.87C320.198 128.442 267.478 93.8973 230.055 87.2065C205.633 82.8327 190.207 91.504 173.364 100.355C162.878 105.86 152.894 111.901 142.272 118.217C111.898 136.284 90.3702 146.469 45.9129 147.826C35.18 148.042 24.4431 147.709 13.7442 146.828C-46.7 142.351 -112.878 120.788 -132.99 149.597" stroke="#24B7B1" stroke-opacity="0.4" stroke-width="0.5" stroke-miterlimit="10"/>
<path d="M395.82 233.269C318.408 136.663 265.526 101.207 227.598 93.2324C203.001 88.0503 186.772 95.4943 169.858 103.644C159.076 108.845 149.059 114.77 138.636 121.135C108.805 139.326 87.67 152.027 43.1321 153.912C32.4259 154.265 21.7081 153.928 11.0451 152.903C-49.7644 147.513 -115.646 121.454 -137.186 148.468" stroke="#24B7B1" stroke-opacity="0.4" stroke-width="0.5" stroke-miterlimit="10"/>
<path d="M392.832 239.667C316.628 144.874 263.584 108.579 225.08 99.2659C200.326 93.2913 183.282 99.4727 166.371 106.92C155.29 111.808 145.244 117.645 135.011 124.05C105.739 142.364 84.9792 157.575 40.3164 160.001C29.6358 160.479 18.9344 160.129 8.30769 158.955C-52.8101 152.737 -118.439 122.131 -141.362 147.411" stroke="#24B7B1" stroke-opacity="0.4" stroke-width="0.5" stroke-miterlimit="10"/>
<path d="M389.833 246.067C314.844 153.132 261.711 115.917 222.599 105.305C197.641 98.5256 179.816 103.431 162.885 110.207C151.467 114.769 141.418 120.514 131.376 126.968C102.653 145.388 82.289 163.133 37.5194 166.099C26.865 166.695 16.1786 166.332 5.58898 165.015C-55.8611 157.925 -121.234 122.801 -145.543 146.318" stroke="#24B7B1" stroke-opacity="0.4" stroke-width="0.5" stroke-miterlimit="10"/>
<path d="M386.846 252.465C313.097 161.301 259.787 123.278 220.114 111.371C194.973 103.803 176.365 107.414 159.398 113.548C147.711 117.803 137.585 123.447 127.751 129.939C99.581 148.501 79.5988 168.745 34.7281 172.223C24.1003 172.937 13.4273 172.562 2.87597 171.101C-58.9075 163.13 -124.063 123.538 -149.718 145.26" stroke="#24B7B1" stroke-opacity="0.4" stroke-width="0.5" stroke-miterlimit="10"/>
<path d="M383.856 258.864C311.271 169.528 257.852 130.642 217.627 117.374C192.283 109.01 172.9 111.307 155.895 116.782C143.9 120.651 133.761 126.269 124.11 132.821C96.5008 151.506 76.9019 174.258 31.9267 178.294C21.3262 179.132 10.6643 178.743 0.152861 177.134C-61.9584 168.254 -126.82 124.148 -153.905 144.132" stroke="#24B7B1" stroke-opacity="0.4" stroke-width="0.5" stroke-miterlimit="10"/>
<path d="M380.856 265.254C309.481 177.74 255.922 138.049 215.171 123.399C189.636 114.256 169.484 115.22 152.445 120.063C140.144 123.555 129.972 129.131 120.517 135.705C93.4507 154.523 74.2363 179.793 29.1624 184.358C18.5864 185.31 7.93209 184.908 -2.54232 183.162C-64.9452 173.295 -129.578 124.82 -158.069 143.026" stroke="#24B7B1" stroke-opacity="0.4" stroke-width="0.5" stroke-miterlimit="10"/>
<path d="M377.876 271.651C264.002 132.564 193.436 112.343 148.914 123.355C100.311 135.375 87.3037 183.561 26.33 190.46C-45.1983 198.544 -127.344 122.709 -162.268 141.935" stroke="#24B7B1" stroke-opacity="0.4" stroke-width="0.5" stroke-miterlimit="10"/>
</g>
</svg>
