<svg width="247" height="174" viewBox="0 0 247 174" fill="none" xmlns="http://www.w3.org/2000/svg">
<path d="M45.2439 204C28.05 204 13.2299 199.938 0.783497 191.814C-11.6629 183.626 -21.2543 171.887 -27.9907 156.598C-34.7271 141.246 -38.0632 122.79 -37.9991 101.232C-37.9349 79.6745 -34.5667 61.3791 -27.8944 46.3462C-21.158 31.2493 -11.5987 19.7667 0.783497 11.8984C13.2299 3.96614 28.05 0 45.2439 0C62.4379 0 77.258 3.96614 89.7044 11.8984C102.215 19.7667 111.838 31.2493 118.575 46.3462C125.311 61.4431 128.647 79.7385 128.583 101.232C128.583 122.854 125.215 141.341 118.479 156.694C111.742 172.047 102.151 183.786 89.7044 191.91C77.3222 199.97 62.502 204 45.2439 204ZM45.2439 165.138C55.509 165.138 63.8172 159.925 70.1687 149.498C76.5202 139.007 79.6639 122.918 79.5997 101.232C79.5997 87.0311 78.1562 75.3246 75.2692 66.1129C72.3821 56.8373 68.3723 49.9285 63.2398 45.3866C58.1073 40.8448 52.1087 38.5739 45.2439 38.5739C35.0431 38.5739 26.799 43.7234 20.5116 54.0226C14.2243 64.2578 11.0485 79.9944 10.9844 101.232C10.9202 115.626 12.2996 127.556 15.1225 137.024C18.0095 146.491 22.0514 153.56 27.248 158.23C32.4447 162.835 38.4433 165.138 45.2439 165.138Z" fill="#24B7B1" fill-opacity="0.1"/>
<path d="M247 2.68674V199.202H199.46V47.0179H198.305L154.23 73.8852V32.8166L202.828 2.68674H247Z" fill="#24B7B1" fill-opacity="0.1"/>
</svg>
