<svg width="62" height="36" viewBox="0 0 62 36" fill="none" xmlns="http://www.w3.org/2000/svg">
<path d="M1 16.9997C0.447715 16.9997 0 17.4474 0 17.9997C0 18.552 0.447715 18.9997 1 18.9997V16.9997ZM61 17.9997L61.7071 18.7068C62.0976 18.3163 62.0976 17.6831 61.7071 17.2926L61 17.9997ZM45.0404 0.625901C44.6499 0.235377 44.0168 0.235377 43.6262 0.625901C43.2357 1.01643 43.2357 1.64959 43.6262 2.04011L45.0404 0.625901ZM43.6262 33.9592C43.2357 34.3498 43.2357 34.9829 43.6262 35.3735C44.0168 35.764 44.6499 35.764 45.0404 35.3735L43.6262 33.9592ZM1 18.9997H61V16.9997H1V18.9997ZM61.7071 17.2926L45.0404 0.625901L43.6262 2.04011L60.2929 18.7068L61.7071 17.2926ZM60.2929 17.2926L43.6262 33.9592L45.0404 35.3735L61.7071 18.7068L60.2929 17.2926Z" fill="#1D1D1B"/>
</svg>
