<svg width="24" height="24" viewBox="0 0 24 24" fill="none" xmlns="http://www.w3.org/2000/svg">
<path d="M0.687424 21.8997C0.2969 22.2902 0.2969 22.9233 0.687424 23.3139C1.07795 23.7044 1.71111 23.7044 2.10164 23.3139L0.687424 21.8997ZM22.6077 1.39355H23.6077C23.6077 0.84127 23.16 0.393555 22.6077 0.393555V1.39355ZM1.39453 0.393555C0.842246 0.393555 0.394531 0.84127 0.394531 1.39355C0.394531 1.94584 0.842246 2.39355 1.39453 2.39355V0.393555ZM21.6077 22.6068C21.6077 23.159 22.0554 23.6068 22.6077 23.6068C23.16 23.6068 23.6077 23.159 23.6077 22.6068H21.6077ZM2.10164 23.3139L23.3148 2.10066L21.9006 0.686448L0.687424 21.8997L2.10164 23.3139ZM22.6077 0.393555H1.39453V2.39355H22.6077V0.393555ZM21.6077 1.39355V22.6068H23.6077V1.39355H21.6077Z" fill="#24B7B1"/>
</svg>
