<svg width="122" height="18" viewBox="0 0 122 18" fill="none" xmlns="http://www.w3.org/2000/svg">
<g clip-path="url(#clip0_160_1710)">
<path d="M14.0888 12.4071H4.58856C4.97633 13.6929 6.075 14.4643 7.75532 14.4643C9.04787 14.4643 9.88803 14.0786 10.7282 13.3714L13.1194 15.8786C11.8915 17.2929 10.0173 18 7.56144 18C3.0375 17.9357 0 15.1071 0 11.25C0 7.32857 3.0375 4.56429 7.17367 4.56429C11.0513 4.56429 14.1535 7.00714 14.1535 11.3143C14.1535 11.6357 14.0888 12.0857 14.0888 12.4071ZM4.52394 10.0286H9.88803C9.62952 8.67857 8.6601 7.77857 7.2383 7.77857C5.75186 7.77857 4.78245 8.67857 4.52394 10.0286Z" fill="#24B7B1"/>
<path d="M16.1569 9.19287H23.2013V12.6643H16.1569V9.19287Z" fill="#24B7B1"/>
<path d="M25.2694 11.25C25.2694 7.32857 28.3715 4.56429 32.637 4.56429C36.967 4.56429 40.0045 7.32857 40.0045 11.25C40.0045 15.1714 36.967 18 32.637 18C28.3715 17.9357 25.2694 15.1714 25.2694 11.25ZM35.3513 11.25C35.3513 9.25714 34.188 8.16429 32.637 8.16429C31.0859 8.16429 29.9226 9.25714 29.9226 11.25C29.9226 13.2429 31.1505 14.3357 32.637 14.3357C34.188 14.3357 35.3513 13.2429 35.3513 11.25Z" fill="#24B7B1"/>
<path d="M48.0183 13.1786L46.6612 14.5286V17.6786H42.0726V0H46.6612V9.32143L51.3144 4.82143H56.7431L51.3144 10.35L57.1955 17.7429H51.6375L48.0183 13.1786Z" fill="#24B7B1"/>
<path d="M72.383 10.35V17.7429H67.859V11.0571C67.859 9.19286 67.0189 8.42143 65.7263 8.42143C64.2399 8.42143 63.1412 9.32143 63.1412 11.5071V17.7429H58.5527V4.75715H62.8827V6.17143C63.9168 5.07857 65.4032 4.56429 67.0189 4.56429C70.0564 4.56429 72.383 6.3 72.383 10.35Z" fill="#24B7B1"/>
<path d="M87.5058 10.5429V17.7429H83.2404V16.0714C82.5941 17.2929 81.3016 17.9357 79.3628 17.9357C76.2606 17.9357 74.5157 16.2 74.5157 13.95C74.5157 11.5714 76.2606 10.0929 80.3322 10.0929H82.9173C82.8527 8.80715 81.9479 8.03572 80.1383 8.03572C78.9104 8.03572 77.4886 8.48572 76.5838 9.12858L75.0327 6.04286C76.5191 5.07858 78.7165 4.56429 80.7846 4.56429C85.05 4.56429 87.5058 6.42858 87.5058 10.5429ZM82.9173 13.5643V12.4714H80.9138C79.4274 12.4714 78.9104 12.9857 78.9104 13.7571C78.9104 14.5286 79.5566 15.0429 80.5907 15.0429C81.6247 15.1071 82.5295 14.5929 82.9173 13.5643Z" fill="#24B7B1"/>
<path d="M89.5739 15.2357C89.5739 13.6286 90.8019 12.5357 92.2883 12.5357C93.8394 12.5357 95.0026 13.5643 95.0026 15.2357C95.0026 16.8429 93.8394 17.9357 92.2883 17.9357C90.7372 17.9357 89.5739 16.8429 89.5739 15.2357Z" fill="#24B7B1"/>
<path d="M105.925 4.56429V8.67857C105.537 8.61429 105.214 8.61429 104.891 8.61429C103.016 8.61429 101.789 9.57857 101.789 11.8286V17.8071H97.2V4.75715H101.53V6.36429C102.435 5.14286 103.986 4.56429 105.925 4.56429Z" fill="#24B7B1"/>
<path d="M121.5 4.75714V17.7428H117.17V16.3286C116.201 17.4214 114.779 17.9357 113.292 17.9357C110.126 17.9357 107.734 16.1357 107.734 12.0214V4.75714H112.323V11.25C112.323 13.2429 113.098 14.0786 114.456 14.0786C115.813 14.0786 116.911 13.1786 116.911 10.9929V4.75714H121.5Z" fill="#24B7B1"/>
</g>
<defs>
<clipPath id="clip0_160_1710">
<rect width="121.5" height="18" fill="white"/>
</clipPath>
</defs>
</svg>
