<svg width="141" height="80" viewBox="0 0 141 80" fill="none" xmlns="http://www.w3.org/2000/svg">
<path d="M16.35 73.6209H5.325C5.775 75.0875 7.05 75.9674 9 75.9674C10.5 75.9674 11.475 75.5274 12.45 74.7208L15.225 77.5806C13.8 79.1938 11.625 80.0004 8.775 80.0004C3.525 79.927 0 76.7006 0 72.301C0 67.8281 3.525 64.675 8.325 64.675C12.825 64.675 16.425 67.4614 16.425 72.3743C16.425 72.741 16.35 73.2543 16.35 73.6209ZM5.25 70.9078H11.475C11.175 69.3679 10.05 68.3413 8.4 68.3413C6.675 68.3413 5.55 69.3679 5.25 70.9078Z" fill="#24B7B1"/>
<path d="M18.75 69.9546H26.925V73.9142H18.75V69.9546Z" fill="#24B7B1"/>
<path d="M29.325 72.301C29.325 67.8281 32.925 64.675 37.875 64.675C42.9 64.675 46.425 67.8281 46.425 72.301C46.425 76.774 42.9 80.0004 37.875 80.0004C32.925 79.927 29.325 76.774 29.325 72.301ZM41.025 72.301C41.025 70.0279 39.675 68.7813 37.875 68.7813C36.075 68.7813 34.725 70.0279 34.725 72.301C34.725 74.5742 36.15 75.8207 37.875 75.8207C39.675 75.8207 41.025 74.5742 41.025 72.301Z" fill="#24B7B1"/>
<path d="M55.725 74.5008L54.15 76.0407V79.6337H48.825V59.4688H54.15V70.1012L59.55 64.9683H65.85L59.55 71.2744L66.375 79.7071H59.925L55.725 74.5008Z" fill="#24B7B1"/>
<path d="M84 71.2744V79.7071H78.75V72.081C78.75 69.9545 77.775 69.0746 76.275 69.0746C74.55 69.0746 73.275 70.1012 73.275 72.5943V79.7071H67.95V64.895H72.975V66.5082C74.175 65.2616 75.9 64.675 77.775 64.675C81.3 64.675 84 66.6548 84 71.2744Z" fill="#24B7B1"/>
<path d="M101.55 71.4944V79.7071H96.6V77.8006C95.85 79.1938 94.35 79.927 92.1 79.927C88.5 79.927 86.475 77.9472 86.475 75.3808C86.475 72.6677 88.5 70.9811 93.225 70.9811H96.225C96.15 69.5146 95.1 68.6347 93 68.6347C91.575 68.6347 89.925 69.148 88.875 69.8812L87.075 66.3615C88.8 65.2616 91.35 64.675 93.75 64.675C98.7 64.675 101.55 66.8015 101.55 71.4944ZM96.225 74.9408V73.6942H93.9C92.175 73.6942 91.575 74.2809 91.575 75.1608C91.575 76.0407 92.325 76.6273 93.525 76.6273C94.725 76.7006 95.775 76.114 96.225 74.9408Z" fill="#24B7B1"/>
<path d="M103.95 76.8473C103.95 75.0141 105.375 73.7676 107.1 73.7676C108.9 73.7676 110.25 74.9408 110.25 76.8473C110.25 78.6805 108.9 79.927 107.1 79.927C105.3 79.927 103.95 78.6805 103.95 76.8473Z" fill="#24B7B1"/>
<path d="M122.925 64.675V69.3679C122.475 69.2946 122.1 69.2946 121.725 69.2946C119.55 69.2946 118.125 70.3945 118.125 72.961V79.7804H112.8V64.895H117.825V66.7281C118.875 65.3349 120.675 64.675 122.925 64.675Z" fill="#24B7B1"/>
<path d="M141 64.895V79.7071H135.975V78.0939C134.85 79.3404 133.2 79.927 131.475 79.927C127.8 79.927 125.025 77.8739 125.025 73.1809V64.895H130.35V72.301C130.35 74.5742 131.25 75.5274 132.825 75.5274C134.4 75.5274 135.675 74.5008 135.675 72.0077V64.895H141Z" fill="#24B7B1"/>
<path d="M56.3258 49.1292H54.0008V5.20623H85.5758V20.5316H90.9008V0H48.6758V54.3355H56.3258V49.1292Z" fill="#24B7B1"/>
<path d="M90.9008 54.3355H59.0258V22.8048H90.9008V38.1302L72.7508 41.7232L71.7008 36.6636L85.5758 33.8772V28.011H64.3508V49.1292H85.5758V45.3162H90.9008V54.3355Z" fill="#24B7B1"/>
</svg>
