<svg width="162" height="24" viewBox="0 0 162 24" fill="none" xmlns="http://www.w3.org/2000/svg">
<path d="M18.7851 16.5429H6.11808C6.63511 18.2571 8.1 19.2857 10.3404 19.2857C12.0638 19.2857 13.184 18.7714 14.3043 17.8286L17.4925 21.1714C15.8553 23.0571 13.3564 24 10.0819 24C4.05 23.9143 0 20.1429 0 15C0 9.77143 4.05 6.08572 9.56489 6.08572C14.7351 6.08572 18.8713 9.34286 18.8713 15.0857C18.8713 15.5143 18.7851 16.1143 18.7851 16.5429ZM6.03191 13.3714H13.184C12.8394 11.5714 11.5468 10.3714 9.65106 10.3714C7.66915 10.3714 6.37659 11.5714 6.03191 13.3714Z" fill="#24B7B1"/>
<path d="M21.5426 12.2572H30.9351V16.8857H21.5426V12.2572Z" fill="#24B7B1"/>
<path d="M33.6925 15C33.6925 9.77143 37.8287 6.08572 43.5159 6.08572C49.2893 6.08572 53.3393 9.77143 53.3393 15C53.3393 20.2286 49.2893 24 43.5159 24C37.8287 23.9143 33.6925 20.2286 33.6925 15ZM47.1351 15C47.1351 12.3429 45.584 10.8857 43.5159 10.8857C41.4479 10.8857 39.8968 12.3429 39.8968 15C39.8968 17.6571 41.534 19.1143 43.5159 19.1143C45.584 19.1143 47.1351 17.6571 47.1351 15Z" fill="#24B7B1"/>
<path d="M64.0245 17.5714L62.2149 19.3714V23.5714H56.0968V0H62.2149V12.4286L68.4191 6.42857H75.6574L68.4191 13.8L76.2606 23.6571H68.85L64.0245 17.5714Z" fill="#24B7B1"/>
<path d="M96.5106 13.8V23.6571H90.4787V14.7429C90.4787 12.2571 89.3585 11.2286 87.6351 11.2286C85.6532 11.2286 84.1883 12.4286 84.1883 15.3429V23.6571H78.0702V6.34286H83.8436V8.22857C85.2223 6.77143 87.2042 6.08572 89.3585 6.08572C93.4085 6.08572 96.5106 8.4 96.5106 13.8Z" fill="#24B7B1"/>
<path d="M116.674 14.0571V23.6571H110.987V21.4286C110.126 23.0571 108.402 23.9143 105.817 23.9143C101.681 23.9143 99.3543 21.6 99.3543 18.6C99.3543 15.4286 101.681 13.4571 107.11 13.4571H110.556C110.47 11.7429 109.264 10.7143 106.851 10.7143C105.214 10.7143 103.318 11.3143 102.112 12.1714L100.044 8.05715C102.026 6.77143 104.955 6.08572 107.713 6.08572C113.4 6.08572 116.674 8.57143 116.674 14.0571ZM110.556 18.0857V16.6286H107.885C105.903 16.6286 105.214 17.3143 105.214 18.3429C105.214 19.3714 106.076 20.0571 107.454 20.0571C108.833 20.1429 110.039 19.4571 110.556 18.0857Z" fill="#24B7B1"/>
<path d="M119.432 20.3143C119.432 18.1714 121.069 16.7143 123.051 16.7143C125.119 16.7143 126.67 18.0857 126.67 20.3143C126.67 22.4571 125.119 23.9143 123.051 23.9143C120.983 23.9143 119.432 22.4571 119.432 20.3143Z" fill="#24B7B1"/>
<path d="M141.233 6.08572V11.5714C140.716 11.4857 140.285 11.4857 139.854 11.4857C137.355 11.4857 135.718 12.7714 135.718 15.7714V23.7429H129.6V6.34286H135.373V8.48572C136.58 6.85715 138.648 6.08572 141.233 6.08572Z" fill="#24B7B1"/>
<path d="M162 6.34285V23.6571H156.227V21.7714C154.934 23.2286 153.038 23.9143 151.056 23.9143C146.834 23.9143 143.646 21.5143 143.646 16.0286V6.34285H149.764V15C149.764 17.6571 150.798 18.7714 152.607 18.7714C154.417 18.7714 155.882 17.5714 155.882 14.6571V6.34285H162Z" fill="#24B7B1"/>
</svg>
