<svg width="113" height="64" viewBox="0 0 113 64" fill="none" xmlns="http://www.w3.org/2000/svg">
<path d="M12.9342 58.8969H4.21252C4.56851 60.0702 5.57714 60.7741 7.11976 60.7741C8.30638 60.7741 9.07769 60.4221 9.849 59.7768L12.0443 62.0647C10.917 63.3552 9.19635 64.0005 6.94176 64.0005C2.78857 63.9418 0 61.3607 0 57.841C0 54.2626 2.78857 51.7402 6.58577 51.7402C10.1457 51.7402 12.9936 53.9693 12.9936 57.8997C12.9936 58.193 12.9342 58.6036 12.9342 58.8969ZM4.15319 56.7264H9.07769C8.84036 55.4945 7.95039 54.6733 6.6451 54.6733C5.28048 54.6733 4.39052 55.4945 4.15319 56.7264Z" fill="#24B7B1"/>
<path d="M14.8328 55.9638H21.2999V59.1316H14.8328V55.9638Z" fill="#24B7B1"/>
<path d="M23.1985 57.841C23.1985 54.2626 26.0464 51.7402 29.9623 51.7402C33.9375 51.7402 36.7261 54.2626 36.7261 57.841C36.7261 61.4194 33.9375 64.0005 29.9623 64.0005C26.0464 63.9418 23.1985 61.4194 23.1985 57.841ZM32.4542 57.841C32.4542 56.0225 31.3862 55.0252 29.9623 55.0252C28.5383 55.0252 27.4704 56.0225 27.4704 57.841C27.4704 59.6595 28.5977 60.6568 29.9623 60.6568C31.3862 60.6568 32.4542 59.6595 32.4542 57.841Z" fill="#24B7B1"/>
<path d="M44.0832 59.6009L42.8372 60.8328V63.7072H38.6247V47.5752H42.8372V56.0812L47.109 51.9748H52.0929L47.109 57.0197L52.5082 63.7658H47.4057L44.0832 59.6009Z" fill="#24B7B1"/>
<path d="M66.4511 57.0197V63.7658H62.2979V57.665C62.2979 55.9638 61.5266 55.2599 60.3399 55.2599C58.9753 55.2599 57.9667 56.0812 57.9667 58.0757V63.7658H53.7542V51.9162H57.7294V53.2067C58.6787 52.2095 60.0433 51.7402 61.5266 51.7402C64.3151 51.7402 66.4511 53.3241 66.4511 57.0197Z" fill="#24B7B1"/>
<path d="M80.3346 57.1957V63.7658H76.4187V62.2406C75.8254 63.3552 74.6388 63.9418 72.8588 63.9418C70.0109 63.9418 68.409 62.358 68.409 60.3048C68.409 58.1343 70.0109 56.7851 73.7488 56.7851H76.1221C76.0627 55.6119 75.2321 54.9079 73.5708 54.9079C72.4435 54.9079 71.1382 55.3186 70.3076 55.9052L68.8836 53.0894C70.2483 52.2095 72.2655 51.7402 74.1641 51.7402C78.08 51.7402 80.3346 53.4414 80.3346 57.1957ZM76.1221 59.9528V58.9556H74.2828C72.9182 58.9556 72.4435 59.4249 72.4435 60.1288C72.4435 60.8328 73.0368 61.3021 73.9861 61.3021C74.9354 61.3607 75.7661 60.8914 76.1221 59.9528Z" fill="#24B7B1"/>
<path d="M82.2332 61.478C82.2332 60.0115 83.3605 59.0142 84.7251 59.0142C86.149 59.0142 87.217 59.9528 87.217 61.478C87.217 62.9446 86.149 63.9418 84.7251 63.9418C83.3011 63.9418 82.2332 62.9446 82.2332 61.478Z" fill="#24B7B1"/>
<path d="M97.244 51.7402V55.4945C96.888 55.4359 96.5914 55.4359 96.2947 55.4359C94.5741 55.4359 93.4468 56.3158 93.4468 58.369V63.8245H89.2343V51.9162H93.2095V53.3827C94.0401 52.2681 95.4641 51.7402 97.244 51.7402Z" fill="#24B7B1"/>
<path d="M111.543 51.9162V63.7658H107.568V62.4753C106.678 63.4725 105.372 63.9418 104.008 63.9418C101.101 63.9418 98.9053 62.2993 98.9053 58.5449V51.9162H103.118V57.841C103.118 59.6595 103.83 60.4221 105.076 60.4221C106.322 60.4221 107.33 59.6009 107.33 57.6064V51.9162H111.543Z" fill="#24B7B1"/>
<path d="M44.5577 39.3034H42.7184V4.16499H67.6969V16.4253H71.9094V0H38.5059V43.4684H44.5577V39.3034Z" fill="#24B7B1"/>
<path d="M71.9094 43.4684H46.6936V18.2438H71.9094V30.5041L57.5513 33.3786L56.7206 29.3309L67.6969 27.1018V22.4088H50.9061V39.3034H67.6969V36.253H71.9094V43.4684Z" fill="#24B7B1"/>
</svg>
