<svg width="79" height="46" viewBox="0 0 79 46" fill="none" xmlns="http://www.w3.org/2000/svg">
<path d="M9.12942 42.3318H2.97334C3.22461 43.1751 3.93654 43.681 5.02537 43.681C5.86293 43.681 6.40734 43.4281 6.95176 42.9643L8.50124 44.6086C7.70556 45.5362 6.4911 46 4.89973 46C1.96827 45.9579 0 44.1027 0 41.5729C0 39.0009 1.96827 37.1879 4.64846 37.1879C7.16115 37.1879 9.17129 38.7901 9.17129 41.6151C9.17129 41.8259 9.12942 42.121 9.12942 42.3318ZM2.93146 40.7718H6.40734C6.23983 39.8864 5.61166 39.2961 4.69034 39.2961C3.72715 39.2961 3.09898 39.8864 2.93146 40.7718Z" fill="#24B7B1"/>
<path d="M10.4695 40.2237H15.0342V42.5005H10.4695V40.2237Z" fill="#24B7B1"/>
<path d="M16.3743 41.5729C16.3743 39.0009 18.3845 37.1879 21.1484 37.1879C23.9542 37.1879 25.9225 39.0009 25.9225 41.5729C25.9225 44.1448 23.9542 46 21.1484 46C18.3845 45.9579 16.3743 44.1448 16.3743 41.5729ZM22.9073 41.5729C22.9073 40.2658 22.1535 39.5491 21.1484 39.5491C20.1433 39.5491 19.3895 40.2658 19.3895 41.5729C19.3895 42.8799 20.1852 43.5967 21.1484 43.5967C22.1535 43.5967 22.9073 42.8799 22.9073 41.5729Z" fill="#24B7B1"/>
<path d="M31.1154 42.8378L30.236 43.7232V45.7892H27.2626V34.1943H30.236V40.308L33.2512 37.3566H36.7689L33.2512 40.9826L37.0621 45.8314H33.4606L31.1154 42.8378Z" fill="#24B7B1"/>
<path d="M46.9034 40.9826V45.8314H43.972V41.4464C43.972 40.2237 43.4276 39.7177 42.59 39.7177C41.6268 39.7177 40.9149 40.308 40.9149 41.7415V45.8314H37.9415V37.3144H40.7474V38.242C41.4174 37.5252 42.3806 37.1879 43.4275 37.1879C45.3958 37.1879 46.9034 38.3263 46.9034 40.9826Z" fill="#24B7B1"/>
<path d="M56.7029 41.1091V45.8314H53.9389V44.7351C53.5202 45.5362 52.6826 45.9579 51.4263 45.9579C49.4161 45.9579 48.2854 44.8195 48.2854 43.3437C48.2854 41.7837 49.4161 40.814 52.0544 40.814H53.7296C53.6877 39.9707 53.1014 39.4647 51.9288 39.4647C51.1331 39.4647 50.2118 39.7599 49.6255 40.1815L48.6204 38.1577C49.5836 37.5252 51.0075 37.1879 52.3476 37.1879C55.1115 37.1879 56.7029 38.4107 56.7029 41.1091ZM53.7296 43.0908V42.374H52.4313C51.4681 42.374 51.1331 42.7113 51.1331 43.2173C51.1331 43.7232 51.5519 44.0605 52.2219 44.0605C52.892 44.1027 53.4783 43.7654 53.7296 43.0908Z" fill="#24B7B1"/>
<path d="M58.043 44.187C58.043 43.1329 58.8387 42.4162 59.8019 42.4162C60.8069 42.4162 61.5607 43.0908 61.5607 44.187C61.5607 45.2411 60.8069 45.9579 59.8019 45.9579C58.7968 45.9579 58.043 45.2411 58.043 44.187Z" fill="#24B7B1"/>
<path d="M68.6381 37.1879V39.8864C68.3869 39.8442 68.1775 39.8442 67.9681 39.8442C66.7536 39.8442 65.9579 40.4766 65.9579 41.9524V45.8735H62.9846V37.3144H65.7904V38.3685C66.3767 37.5674 67.3818 37.1879 68.6381 37.1879Z" fill="#24B7B1"/>
<path d="M78.7308 37.3144V45.8314H75.9249V44.9038C75.2968 45.6205 74.3754 45.9579 73.4122 45.9579C71.3602 45.9579 69.8107 44.7773 69.8107 42.0788V37.3144H72.7841V41.5729C72.7841 42.8799 73.2866 43.4281 74.166 43.4281C75.0455 43.4281 75.7574 42.8378 75.7574 41.4042V37.3144H78.7308Z" fill="#24B7B1"/>
<path d="M31.4512 28.2493H30.153V2.99358H47.7837V11.8057H50.757V0H27.1797V31.2429H31.4512V28.2493Z" fill="#24B7B1"/>
<path d="M50.7571 31.2429H32.9589V13.1127H50.7571V21.9248L40.6226 23.9908L40.0363 21.0816L47.7837 19.4794V16.1063H35.9322V28.2493H47.7837V26.0568H50.7571V31.2429Z" fill="#24B7B1"/>
</svg>
