<svg width="24" height="24" viewBox="0 0 24 24" fill="none" xmlns="http://www.w3.org/2000/svg">
<path d="M2.33398 11.9997C2.33398 6.66092 6.6619 2.33301 12.0007 2.33301V0.333008C5.55733 0.333008 0.333984 5.55635 0.333984 11.9997H2.33398ZM12.0007 21.6663C6.6619 21.6663 2.33398 17.3384 2.33398 11.9997H0.333984C0.333984 18.443 5.55733 23.6663 12.0007 23.6663V21.6663ZM21.6673 11.9997C21.6673 17.3384 17.3394 21.6663 12.0007 21.6663V23.6663C18.444 23.6663 23.6673 18.443 23.6673 11.9997H21.6673ZM23.6673 11.9997C23.6673 5.55635 18.444 0.333008 12.0007 0.333008V2.33301C17.3394 2.33301 21.6673 6.66092 21.6673 11.9997H23.6673Z" fill="#D9D9D9"/>
</svg>
